<?xml version="1.0" encoding="utf-8"?>
<!-- Generator: Adobe Illustrator 24.2.3, SVG Export Plug-In . SVG Version: 6.00 Build 0)  -->
<svg version="1.1" id="Layer_1" xmlns="http://www.w3.org/2000/svg" 
	xmlns:xlink="http://www.w3.org/1999/xlink" x="0px" y="0px"
	viewBox="0 0 992 439.9" style="enable-background:new 0 0 992 439.9;" xml:space="preserve"  
	
	>
<style type="text/css">
	.st0{fill:#CE9B9B;}
	.st1{fill:#FFBD9C;}
	.st2{fill:#362349;}
	.st3{fill:#563B6B;}
	.st4{fill:#D89682;}
	.st5{fill:#990F02;}
	.st6{fill:#00053F;}
	.st7{opacity:0.8;}
	.st8{fill:#FFFFFF;}
	.st9{fill:#F8BD7A;}
	.st10{fill:#18214D;}
	.st11{fill:#FFF1E9;}
	.st12{fill:#7E2E3B;}
	.st13{opacity:0.35;}
	.st14{fill:#561A25;}
	.st15{fill:#F7F7F7;}
	.st16{opacity:0.24;}
	.st17{fill:#B7652E;}
	.st18{fill:#040055;}
	.st19{fill:#B56835;}
	.st20{fill:#422D51;}
	.st21{fill:#00B493;}
	.st22{fill:#009198;}
	.st23{fill:#FCA054;}
	.st24{fill:#9E6235;}
	.st25{fill:#0C0C0C;}
	.st26{fill:#C8BDD1;}
	.st27{fill:#B56326;}
	.st28{fill:#383838;}
	.st29{fill:#161616;}
	.st30{fill:#EE5050;}
	.st31{fill:#C48362;}
	.st32{fill:#2D2D2D;}
	.st33{fill:#694582;}
	.st34{fill:#191919;}
	.st35{fill:#663A3A;}
	.st36{fill:#3F2222;}
	.st37{fill:#111111;}
	.st38{fill:#432254;}
	.st39{fill:#1C1C1C;}
	.st40{fill:#D35050;}
	.st41{fill:#990F02;}
</style>
<g>
	<g>
		<g>
			<!-- <g>
				<g>
					<g>
						<g>
							<g>
								<path class="st0" d="M274,437.6H69.9c-0.4,0-0.7,0.3-0.7,0.7c0,0.4,0.3,0.7,0.7,0.7h204.2c0-0.1,0-0.2,0-0.2
									C274.1,438.5,274.1,438,274,437.6z"/>
							</g>
						</g>
					</g>
				</g>
			</g> -->
			<g>
				<g>
					<g>
						<g>
							<path class="st1" d="M229,348.7c-0.3-0.2,9-6.3,0-7.9c-8.1-1.5,8.2-33.5,8.2-33.5l-9-24c0,0-14.9,42-21.3,55
								c-1.3,2.6,0.1,9.5,2.5,11.1c1.3,0.8,2.8,1.8,4.5,2.9C216.1,347.7,226.9,353.5,229,348.7z"/>
						</g>
					</g>
					<g>
						<g>
							<path class="st1" d="M221.8,333.1c-2.1,4.8-4.3,15.7-6.4,20.4c9.8,6.3,45.2,25.6,45.2,25.6l3.9-10.7
								C264.4,368.4,238.1,334.6,221.8,333.1z"/>
						</g>
					</g>
				</g>
			</g>
			<g>
				<g>
					<g>
						<path class="st1" d="M262.7,286.4l-2.1,3.8l-24.3,44.6l-0.4,0.7l-0.6,1c0,0-2.5,20-4.6,28.2c-2.6,10.5-19.3,44.9-19.3,44.9
							l-7.6,20l-8.9-8.7l32.4-137.1l0.8-2.6C228.2,281.1,263,285.5,262.7,286.4z"/>
					</g>
				</g>
			</g>
			<g>
				<g>
					<g>
						<rect x="196.2" y="434.2" class="st2" width="11.3" height="4.9"/>
					</g>
				</g>
				<g>
					<g>
						<g>
							<g>
								<g>
									<path class="st39" d="M198.3,422.7c-3.9,1.8-7.6,3.9-11,6.4c-3.2,2.4-7.9,5.2-12.4,5.4c-9.2,0.3-9.9,4.5-5.8,4.7
										c3.2,0.2,9.9,0.5,18,0c7-0.5,14.1-1.8,17.8-2.1c1.5-0.1,2.5-0.7,2.9-3.1c0.6-3.8,0-7.3-2.1-9.7c-1.8-2-4.7-2.7-7.2-1.6
										L198.3,422.7z"/>
								</g>
							</g>
						</g>
					</g>
					<g>
						<g>
							<g>
								<g>
									<path class="st1" d="M205.7,424.7c-1.8,4.9-11.3,11-33.6,10c0,0,22-6.2,22.9-13.8c0.2-1.6,7.2,0.9,10.2,2
										C205.9,423.1,206,423.9,205.7,424.7z"/>
								</g>
							</g>
						</g>
					</g>
				</g>
			</g>
			<g>
				<g>
					<g>
						
							<rect x="273.9" y="366.4" transform="matrix(0.9999 -1.002969e-02 1.002969e-02 0.9999 -3.7178 2.7907)" class="st2" width="4.9" height="11.3"/>
					</g>
				</g>
				<g>
					<g>
						<g>
							<g>
								<g>
									<path class="st39" d="M262.5,375.8c1.8,3.9,3.9,7.6,6.5,10.9c2.4,3.2,5.3,7.9,5.5,12.3c0.4,9.2,4.6,9.9,4.7,5.8
										c0.1-3.2,0.4-9.9-0.2-18c-0.5-7-1.9-14.1-2.3-17.8c-0.1-1.5-0.7-2.5-3.2-2.9c-3.8-0.6-7.3,0.1-9.6,2.2
										c-2,1.8-2.6,4.8-1.5,7.2L262.5,375.8z"/>
								</g>
							</g>
						</g>
					</g>
					<g>
						<g>
							<g>
								<g>
									<path class="st1" d="M264.4,368.2c4.9,1.8,11.1,11.4,10.4,33.6c0,0-7.2-18.9-14.1-22.7c-1.4-0.8,1.1-8.4,2.2-11.4
										C263.2,367,263.7,368,264.4,368.2z"/>
								</g>
							</g>
						</g>
					</g>
				</g>
			</g>
			<g>
				<g>
					<path class="st4" d="M211.5,351.1L211.5,351.1c-0.2-0.1-0.4-0.2-0.3-0.4l16.2-66.9c0-0.2,0.2-0.3,0.4-0.2
						c0.2,0,0.3,0.2,0.2,0.4l-16.2,66.9C211.8,351,211.7,351.1,211.5,351.1z"/>
				</g>
			</g>
			<g>
				<g>
					<g>
						<g>
							<path class="st5" d="M278,223.7c0.9,13.6-10.5,24.4-24.1,24.1c-13.6-0.4-23.2-11.8-22.9-25.4c0.1-4,1.3-14.2,2.8-19.9
								c3.6-13.8,10.6-24.3,20.2-24.1C267.6,178.7,277.1,209.4,278,223.7z"/>
						</g>
					</g>
				</g>
				<g>
					<g>
						<g>
							<path class="st5" d="M277.9,228c-5.2,46.7-20.2,67.6-20.2,67.6l-31.1-5.4l-0.4-0.1H226h-0.2v-0.6l0.1-1.6l5-65.5
								C231,222.3,279.2,216,277.9,228z"/>
						</g>
					</g>
				</g>
				<g>
					<g>
						<path class="st6" d="M226.1,290.2C226.1,290.2,226.1,290.1,226.1,290.2c-0.3-0.1-0.4-0.2-0.3-0.4c0.1-0.3,7.2-27.6,8.4-36.3
							c0-0.2,0.2-0.3,0.4-0.3s0.3,0.2,0.3,0.4c-1.2,8.7-8.4,36.1-8.4,36.3C226.4,290.1,226.3,290.2,226.1,290.2z"/>
					</g>
				</g>
			</g>
			<g>
				<g>
					<path class="st4" d="M219.4,334.5c-0.2,0-0.3-0.1-0.3-0.3c0-0.2,0.1-0.3,0.3-0.3c3.6,0,5.1-7.8,5.1-7.9c0-0.2,0.2-0.3,0.4-0.3
						s0.3,0.2,0.3,0.4C225.1,326.5,223.6,334.5,219.4,334.5z"/>
				</g>
			</g>
			<g>
				<g>
					<path class="st6" d="M252.7,214.9c-0.5,0-1-0.1-1.4-0.4c-0.6-0.4-1.1-1-1.3-1.7l-3.8-15c0-0.2,0.1-0.3,0.2-0.4l13.5-3.4
						c0.1,0,0.2,0,0.2,0c0.1,0,0.1,0.1,0.1,0.2l3.8,15c0.2,0.7,0.1,1.4-0.3,2.1c-0.4,0.6-1,1.1-1.7,1.3l-0.1-0.3l0.1,0.3l-8.8,2.2
						C253.1,214.8,252.9,214.9,252.7,214.9z M246.9,198l3.7,14.6c0.1,0.5,0.5,1,1,1.3s1,0.4,1.6,0.2l8.8-2.2c0.5-0.1,1-0.5,1.3-1
						s0.4-1,0.2-1.6l-3.7-14.6L246.9,198z"/>
				</g>
			</g>
			<g>
				<g>
					<path class="st6" d="M257.2,213.6c-1.2,0-2.3-0.8-2.7-2.1l-3.8-15c0-0.1,0-0.2,0-0.2c0-0.1,0.1-0.1,0.2-0.1l13.5-3.4
						c0.2,0,0.3,0.1,0.4,0.2l3.8,15c0.4,1.5-0.5,3-2,3.3l-0.1-0.3l0.1,0.3l-8.8,2.2C257.6,213.6,257.4,213.6,257.2,213.6z
						 M251.4,196.8l3.7,14.6c0.3,1.1,1.4,1.8,2.5,1.5l8.8-2.2l0,0c0.5-0.1,1-0.5,1.3-1s0.4-1,0.2-1.6l-3.7-14.6L251.4,196.8z"/>
				</g>
			</g>
			<g class="st7">
				<g>
					<g>
						<g>
							
								<rect x="130" y="219.9" transform="matrix(0.7151 -0.699 0.699 0.7151 -119.8527 155.3703)" class="st8" width="1.3" height="9.7"/>
						</g>
					</g>
				</g>
				<g>
					<g>
						<g>
							
								<rect x="125.8" y="224" transform="matrix(0.7244 -0.6893 0.6893 0.7244 -118.8691 151.9347)" class="st8" width="9.7" height="1.3"/>
						</g>
					</g>
				</g>
			</g>
			<g>
				<g>
					<g>
						<g>
							<polygon class="st9" points="197.5,158.4 192.5,154.9 196.3,150.3 225.6,151.8 225.8,177.6 							"/>
						</g>
					</g>
				</g>
				<g>
					<g>
						<path class="st1" d="M182.4,139.3c0,0,3.1,0.8,5.7,2.8c1.3,1,2.8,1.8,4.1,2.3c1.6,0.7,3,1.9,4,3.3l0,0l3.5,2.8
							c0,0-1.6,7.1-2.2,7.9c-0.8,1-3.3-1-3.3-1l-5.4-2.1l-5.5-13.9L182.4,139.3z"/>
					</g>
				</g>
				<g>
					<g>
						<g>
							<path class="st10" d="M196,153.3l-8.8,9.8c0,0-14-14.3-18.1-18.4c-0.6-0.6-0.6-1.6,0.1-2.1l8.1-7.4c0.4-0.4,1.2-0.4,1.6,0
								l1,1l13.3,13.4c0.9,0.9,1.6,1.6,1.6,1.6l1.1,1.1C196.2,152.6,196.2,153,196,153.3z"/>
						</g>
					</g>
				</g>
				<g>
					<g>
						<g>
							<path class="st11" d="M194.9,151.3l-7.8,8.7l-15.8-15.5l8.7-8.2l13.3,13.4C194.2,150.6,194.9,151.3,194.9,151.3z"/>
						</g>
					</g>
				</g>
				<g>
					<g>
						<path class="st10" d="M169.7,142.1l18.9,18.5l-2.1,1.8l-17.3-17.8c-0.6-0.6-0.6-1.6,0.1-2.1L169.7,142.1z"/>
					</g>
				</g>
				<g>
					<g>
						<g>
							<g>
								<g>
									<g>
										<g>
											<path class="st12" d="M226.4,53.2c2.6,2.5,6,3.7,9.2,3.5c2.2-0.2,4.2-1,5.8-2.6c0.8-0.9,1.4-1.8,1.7-2.8
												c1.2-3.5-0.5-7.6-3.8-11.2c-6.2-6.8-13.1-4.8-17.1-1.4c-0.4,0.3-0.7,0.6-1,0.9c-0.6,0.6-1,1.3-1.2,2.1
												C218.9,45.2,222.6,49.6,226.4,53.2z"/>
										</g>
									</g>
								</g>
							</g>
						</g>
						<g class="st13">
							<g>
								<g>
									<g>
										<g>
											<path d="M219.9,41.6l1.5,2.8l14.1,12.3c2.2-0.2,4.2-1,5.8-2.6c0.8-0.9,1.4-1.8,1.7-2.8c-0.1-0.2-0.2-0.4-0.3-0.6
												c-4.6-8.6-14.9-11.2-20.6-12c-0.4,0.3-0.7,0.6-1,0.9C220.5,40.2,220.1,40.9,219.9,41.6z"/>
										</g>
									</g>
								</g>
							</g>
						</g>
						<g>
							<g>
								<g>
									<g>
										<g>
											<path class="st12" d="M204.9,70.3c5.2,10.6,15.5,16.6,24.5,14.7c1.3-0.3,2.6-0.7,3.9-1.3c5.9-2.9,9.4-9.1,9.9-16.3
												c0.3-4.6-0.6-9.6-2.9-14.4c-5.9-12.2-18.7-16.6-28.6-12.1C192.8,49.5,198.9,58.1,204.9,70.3z"/>
										</g>
									</g>
								</g>
							</g>
						</g>
						<g class="st13">
							<g>
								<g>
									<g>
										<g>
											<path d="M229.4,85c1.3-0.3,2.6-0.7,3.9-1.3c5.9-2.9,9.4-9.1,9.9-16.3c-5,4.1-12.4,8.1-12.4,8.1S229.7,82.9,229.4,85z"/>
										</g>
									</g>
								</g>
							</g>
						</g>
						<g>
							<g>
								<g>
									<g>
										<g>
											<path class="st1" d="M225.4,115.5c-0.1,1.4,15.8-8.7,21.8-12.1c1-0.6,1.1-1.9,0.2-2.6c-4.6-3.6-15.4-13.7-14.8-24.8
												c0.3-4.6-18.1,8.8-18.1,8.8C229.1,99.7,226.2,107,225.4,115.5z"/>
										</g>
									</g>
								</g>
							</g>
						</g>
						<g>
							<g>
								<g>
									<g>
										<g>
											<path class="st4" d="M220.9,92c0.3-0.2,7.7-5.9,7.2-3.9c-0.4,1.6-6.1,5.9-6.1,5.9L220.9,92z"/>
										</g>
									</g>
								</g>
							</g>
						</g>
						<g>
							<g>
								<g>
									<g>
										<g>
											<path class="st1" d="M202.1,76.9c1.5,3.1,3.9,6.6,6.1,9.6c0.6,0.8,1.2,1.6,1.8,2.4c2.6,3.3,4.7,5.7,4.7,5.7
												s12.2-3.7,15.8-8.6c3.2-4.4,7.8-10,1.2-23.6s-17.5-21.7-26.1-17.6C197.1,48.9,195.5,63.3,202.1,76.9z"/>
										</g>
									</g>
								</g>
							</g>
						</g>
						<g>
							<g>
								<g>
									<g>
										<g>
											<path class="st1" d="M237.5,70.7c-0.8,4.4-3.5,7.7-5.9,7.2c-2.4-0.4-3.7-4.4-2.9-8.8s3.5-7.7,5.9-7.2
												C237,62.3,238.3,66.2,237.5,70.7z"/>
										</g>
									</g>
								</g>
							</g>
						</g>
						<g>
							<g>
								<g>
									<g>
										<g>
											<path class="st1" d="M199.9,70.3c0,0,1.2,3.1,1.8,7.2c0.4,2.5-0.9,6.7,0.6,6.3l6.2-2.6L199.9,70.3z"/>
										</g>
									</g>
								</g>
							</g>
						</g>
						<g>
							<g>
								<g>
									<g>
										<g>
											<path class="st14" d="M209.1,74.4c0.8,0.7,1,1.7,0.5,2.2s-1.5,0.3-2.2-0.5c-0.8-0.7-1-1.7-0.5-2.2
												C207.3,73.5,208.3,73.7,209.1,74.4z"/>
										</g>
									</g>
								</g>
							</g>
						</g>
						<g>
							<g>
								<g>
									<g>
										<g>
											<path class="st12" d="M212.8,67.9c0.6-0.1-2.1-0.6-6.9,1.4c-1.4,0.6-2.6,1.2-3.1,2c-0.4,0.6,0.9,1.3,2.3,0.4
												C206.7,70.5,209.6,68.6,212.8,67.9z"/>
										</g>
									</g>
								</g>
							</g>
						</g>
						<g>
							<g>
								<g>
									<g>
										<g>
											<polygon class="st14" points="210.2,71.9 206,74 206.9,75.6 210.5,72.4 											"/>
										</g>
									</g>
								</g>
							</g>
						</g>
						<g>
							<g>
								<g>
									<g>
										<g>
											<path class="st12" d="M236.5,54.8c-1,5.8-5.3,9.9-11.1,11.1c-7.8,1.6-23.8,1-27.4-5.5c-1.5-2.8,0.9-10.2,3-12.5
												c3.3-3.7,7.3-5.3,7.3-5.3h14.3l11,7.7L236.5,54.8z"/>
										</g>
									</g>
								</g>
							</g>
						</g>
						<g>
							<g>
								<g>
									<g>
										<g>
											<path class="st15" d="M208.2,86.5c0.6,0.8,1.2,1.6,1.8,2.4c1.4-0.3,3.5-2.1,2.9-4.9C212.7,82.9,209.4,85.6,208.2,86.5z"
												/>
										</g>
									</g>
								</g>
							</g>
						</g>
						<g>
							<g>
								<g>
									<g>
										<g>
											<path class="st4" d="M235.6,67.5c0.1-0.1,0.2-0.2,0.2-0.3c0-1.2-0.3-2-1-2.4c-0.9-0.6-1.9-0.1-2-0.1
												c-0.2,0.1-0.3,0.3-0.2,0.4c0.1,0.2,0.3,0.3,0.4,0.2c0,0,0.8-0.3,1.3,0c0.4,0.3,0.6,0.9,0.7,1.8c0,0.2,0.2,0.3,0.3,0.3
												C235.5,67.6,235.6,67.5,235.6,67.5z"/>
										</g>
									</g>
								</g>
							</g>
						</g>
						<g>
							<g>
								<g>
									<g>
										<g>
											<path class="st4" d="M234.7,72.5c0.1-0.1,0.2-0.2,0.2-0.3c0-0.2-0.1-0.3-0.3-0.4c-0.7,0-1.2-0.2-1.4-0.6
												c-0.4-0.6,0-1.6,0.2-2c0.1-0.2,0-0.4-0.1-0.5c-0.2-0.1-0.4,0-0.5,0.1c0,0.1-0.8,1.6-0.2,2.6c0.3,0.6,1,0.9,1.9,0.9
												C234.6,72.5,234.7,72.5,234.7,72.5z"/>
										</g>
									</g>
								</g>
							</g>
						</g>
					</g>
					<g class="st16">
						<g>
							<g>
								<path d="M225.2,59.4c-11.9,0.5-20.3-5.4-22.2-7.5c-0.4-0.4-0.6-0.7-0.4-1c0.1-0.3,0.4-0.4,0.6-0.3c0.2,0.1,0.3,0.2,0.3,0.4
									c0.7,1.1,13.1,11,30.1,6c0.3-0.1,0.5,0.1,0.6,0.3c0.1,0.3-0.1,0.5-0.3,0.6C230.8,58.8,227.9,59.3,225.2,59.4z"/>
							</g>
						</g>
					</g>
				</g>
				<g>
					<g>
						<path class="st17" d="M195.1,155.4c-2.2,1.2-3.9,3.2-4.8,5.5c-1.5,3.6-3,8.2-0.3,7.3c9.2-3.2,7.7-14.3,7.4-14.1
							C196.6,154.5,195.9,155,195.1,155.4z"/>
					</g>
				</g>
				<g>
					<g>
						<g>
							<path class="st9" d="M263,144.6c1.5,16.7-0.2,24.1,1.3,31.9c0.5,2.8,3.2,11.9,5.9,17.9c3.8,8.6-37.1,11-37.1,11l-0.9-18.8
								l-11.8-22.2l-0.5-1.6l-1.7-5.7c-2-6.4-2.1-13.3-0.4-19.8c1.9-7.4,5.6-18.9,8.2-22.5c8.5-11.5,13.5-15.9,18.6-15.6
								C247.2,99.3,259.7,108.2,263,144.6z"/>
						</g>
					</g>
				</g>
				<g>
					<g>
						<path class="st18" d="M255,124.7c-0.2,0-0.3-0.1-0.3-0.3c-1.4-7.5-5.2-9.6-8.3-10c-3.9-0.5-7.7,1.6-8.4,3.3
							c-0.1,0.2-0.3,0.2-0.4,0.2c-0.2-0.1-0.2-0.3-0.2-0.4c1-2.1,5.2-4.2,9.1-3.6c2.6,0.3,7.3,2.2,8.8,10.5
							C255.3,124.5,255.2,124.7,255,124.7L255,124.7z"/>
					</g>
				</g>
				<g>
					<g>
						<path class="st1" d="M199,160l0.8,5.6l-5.9,2.5c0,0-15.9-9.4-15.9-10.9c0-0.1,0-0.2,0-0.3c0,0,0-0.1,0-0.2
							c0-0.2,0.1-0.3,0.1-0.5v-0.1c0.1-0.5,0.4-1,0.6-1.5c0.1-0.2,0.2-0.4,0.3-0.6l0,0c0.2-0.4,0.4-0.7,0.4-0.7
							c6.6-10.1,13.5,3.1,13.5,3.1L199,160z"/>
					</g>
				</g>
				<g>
					<g>
						<g>
							<path class="st9" d="M249.6,156.4v0.2c-0.4,10.5-1.8,21.5-4.9,28.9l0,0c-1.1,2.5-2.3,4.7-3.8,6.3c-1.1,1.2-2.5,0.2-3.7,0.7
								c-1.6,0.7-3.4,2.3-5.7,1.7c-0.5-0.1-0.8,0.2-1.4,0l0,0c-1.2-0.3-2.5-0.8-3.8-1.4c-8-3.6-17.3-9.3-24.5-15.3
								c-2.8-2.4-5.7-4.5-8-6.1c-0.2-0.1-0.4-0.3-0.6-0.4c-2.5-1.7-4.2-2.8-4.2-2.8s3.9-2.5,6-6c3.1-5.3,2.4-8.1,2.4-8.1l4.1,1.9
								l0.6,0.3l23.8,10.8c0,0-2.1-37.1,4.1-44.7c3.2-3.8,12.3-5.4,16.6,3.5c1.3,2.6,2.4,9.3,2.8,17.5
								C249.7,147.3,249.7,151.8,249.6,156.4z"/>
						</g>
					</g>
				</g>
				<g>
					<g>
						<path class="st18" d="M227.7,168.1h-0.1l-7.4-3.4c-0.2-0.1-0.2-0.3-0.2-0.4c0.1-0.2,0.3-0.2,0.4-0.2l7,3.3l5.2-31
							c0-0.2,0.2-0.3,0.4-0.3s0.3,0.2,0.3,0.4l-5.3,31.4C228,168,227.9,168.1,227.7,168.1C227.8,168.1,227.8,168.1,227.7,168.1z"/>
					</g>
				</g>
				<g>
					<g>
						<path class="st18" d="M233.2,194.9c-1,0-2.1-0.1-3.2-0.4c-0.2,0-0.3-0.2-0.2-0.4c0-0.2,0.2-0.3,0.4-0.2
							c3.8,0.9,7.2,0.2,10.2-2.2c14.4-11.4,14.5-56.8,14.5-57.2c0-0.2,0.1-0.3,0.3-0.3l0,0c0.2,0,0.3,0.1,0.3,0.3
							c0,1.9-0.1,46.2-14.7,57.7C238.4,194,235.9,194.9,233.2,194.9z"/>
					</g>
				</g>
				<g>
					<g>
						<path class="st18" d="M230.7,150.1L230.7,150.1c-0.2,0-0.3-0.1-0.3-0.3c0.1-3.4-1.6-7.2-1.6-7.3c-0.1-0.2,0-0.4,0.2-0.4
							c0.2-0.1,0.4,0,0.4,0.2c0.1,0.2,1.7,4,1.7,7.5C231,150,230.9,150.1,230.7,150.1z"/>
					</g>
				</g>
				<g>
					<g>
						<path class="st18" d="M233.1,171.8c-0.1,0-0.1,0-0.2-0.1c-3.8-2.9-8-4.8-8-4.9c-0.2-0.1-0.2-0.3-0.2-0.4
							c0.1-0.2,0.3-0.2,0.4-0.2c0,0,4.3,2,8.2,4.9c0.1,0.1,0.2,0.3,0.1,0.4C233.3,171.7,233.2,171.8,233.1,171.8z"/>
					</g>
				</g>
				<g>
					<g>
						<path class="st1" d="M173.3,148.9c0,0-0.8,1.2-0.7,1.9c0.2,0.7,0.7,1.8,1.7,2.2c1.4,0.5,5.7,1.1,5.7,1.1l4-4.4l-8.8,1.1
							L173.3,148.9z"/>
					</g>
				</g>
				<g>
					<g>
						<path class="st1" d="M187.1,147c-0.5-0.2-1.2-0.1-1.6,0.3c-0.7,0.6-1.9,2.2-1.7,2.4c0.2,0.3,1.3-0.1,1.7,0l-0.5,2.1l4.6,1.5
							l-0.8-4.2C188.7,148.2,188,147.4,187.1,147L187.1,147z"/>
					</g>
				</g>
				<g>
					<g>
						<g>
							<path class="st4" d="M182,155.7c-0.1,0.1-0.2,0.2-0.3,0.2s-0.1,0-0.1,0s-1.8-0.8-2.9-1.3c0.1-0.2,0.2-0.4,0.3-0.6
								c1.1,0.5,2.8,1.3,2.8,1.3C182,155.3,182,155.5,182,155.7z"/>
						</g>
					</g>
				</g>
				<g>
					<g>
						<g>
							<path class="st4" d="M180.1,157.8c-0.1,0.1-0.2,0.2-0.3,0.2c0,0-0.1,0-0.2-0.1c-0.1,0-0.8-0.5-1.7-1c0,0,0-0.1,0-0.2
								c0-0.2,0.1-0.3,0.1-0.5c0.7,0.5,1.5,0.9,1.9,1.2C180.1,157.4,180.2,157.6,180.1,157.8z"/>
						</g>
					</g>
				</g>
				<g>
					<g>
						<path class="st4" d="M185.7,148.3v0.9c0,0,0,0.5-0.1,0.4c-0.1,0-0.9-0.1-0.9-0.1L185.7,148.3z"/>
					</g>
				</g>
				<g>
					<g>
						<path d="M177,138.1l-3.6,3.3c-0.2,0.2-0.5,0.2-0.7,0l0,0c-0.2-0.2-0.2-0.5,0-0.7l3.6-3.3c0.2-0.2,0.5-0.2,0.7,0l0,0
							C177.3,137.6,177.2,137.9,177,138.1z"/>
					</g>
				</g>
				<g>
					<g>
						<polygon class="st4" points="189.5,145.8 190.4,146.7 191.7,146.2 						"/>
					</g>
				</g>
				<g>
					<g>
						<path class="st1" d="M192.2,145.8c0,0-3.3,1-3.4,1.5c0,0.4,0.8,1.5,2.3,1.6c0.7,0.1,2.6,0.1,2.6,0.1L192.2,145.8z"/>
					</g>
				</g>
			</g>
			<g>
				<g>
					<g>
						<path class="st8" d="M167.2,136c-0.1,0-0.2,0-0.3-0.1l-7-4.5c-0.3-0.2-0.4-0.6-0.2-0.9c0.2-0.3,0.6-0.4,0.9-0.2l7,4.5
							c0.3,0.2,0.4,0.6,0.2,0.9C167.6,135.9,167.4,136,167.2,136z"/>
					</g>
				</g>
				<g>
					<g>
						<path class="st8" d="M170.9,132.9c-0.3,0-0.5-0.2-0.6-0.5l-2.3-7.5c-0.1-0.3,0.1-0.7,0.4-0.8c0.3-0.1,0.7,0.1,0.8,0.4l2.3,7.5
							c0.1,0.3-0.1,0.7-0.4,0.8C171,132.9,171,132.9,170.9,132.9z"/>
					</g>
				</g>
				<g>
					<g>
						<path class="st8" d="M177,131.6L177,131.6c-0.4,0-0.7-0.3-0.6-0.7l0.4-7.8c0-0.4,0.3-0.6,0.7-0.6s0.6,0.3,0.6,0.7l-0.4,7.8
							C177.6,131.3,177.4,131.6,177,131.6z"/>
					</g>
				</g>
				<g>
					<g>
						<path class="st8" d="M157.8,141.2c-0.4,0-0.6-0.3-0.6-0.6c0-0.4,0.3-0.6,0.6-0.6l8.2-0.1l0,0c0.4,0,0.6,0.3,0.6,0.6
							c0,0.4-0.3,0.6-0.6,0.6L157.8,141.2L157.8,141.2z"/>
					</g>
				</g>
			</g>
			<g>
				<g>
					<g>
						<path class="st19" d="M202.1,156.2c-0.8,3.9-2.9,10.9-8.3,15.2c-0.2-0.1-0.4-0.3-0.6-0.4c5.4-4.2,7.5-11.3,8.3-15.1
							L202.1,156.2z"/>
					</g>
				</g>
			</g>
			<g>
			<!-- FLOR EN PIES DE CHICA -->
				<g transform="translate(30,325)">
					<!-- CRUZ DE CHIVOS -->
					<!-- <path transform="translate(45,315)" class="st41"
					style=" stroke:none;fill-rule:nonzero;fill-opacity:1;" d="M 28.992188 122.859375 C 24.304688 121.25 23.785156 120.792969 22.78125 117.40625 C 21.84375 114.226562 21.84375 113.785156 22.785156 113.589844 C 23.328125 113.476562 28.902344 107.835938 39.800781 96.378906 C 48.71875 87.003906 57.15625 78.167969 58.550781 76.742188 C 60.449219 74.796875 61.015625 74.027344 60.808594 73.664062 C 60.226562 72.636719 35.90625 47.085938 35.285156 46.847656 C 35.042969 46.753906 34.410156 47.144531 33.875 47.714844 C 32.640625 49.023438 26.601562 57.078125 22.949219 62.289062 C 21.410156 64.476562 19.980469 66.253906 19.765625 66.234375 C 19.554688 66.214844 16.34375 63.777344 12.632812 60.816406 L 5.882812 55.4375 L 6.789062 54.640625 C 7.285156 54.203125 9.113281 51.765625 10.84375 49.222656 C 15.890625 41.828125 21.4375 34.613281 24.199219 31.84375 C 27.941406 28.101562 48.929688 12.585938 50.253906 12.585938 C 50.59375 12.585938 52.488281 14.777344 55.191406 18.296875 C 58.191406 22.203125 59.867188 24.117188 60.484375 24.34375 C 60.980469 24.527344 61.339844 24.816406 61.28125 24.980469 C 61.222656 25.148438 57.945312 27.710938 54.003906 30.679688 C 50.0625 33.648438 45.804688 37.035156 44.542969 38.207031 C 41.230469 41.273438 41.078125 40.90625 48.96875 48.835938 C 56.890625 56.792969 76.640625 75.933594 96.21875 94.636719 C 104.277344 102.335938 111.890625 109.605469 113.128906 110.789062 C 114.578125 112.175781 115.644531 112.945312 116.117188 112.945312 C 116.816406 112.945312 116.839844 113.019531 116.628906 114.609375 C 116.277344 117.269531 115.175781 119.664062 113.921875 120.507812 C 112.738281 121.304688 110.464844 122.03125 108.152344 122.355469 L 106.707031 122.554688 L 87.789062 102.289062 C 77.382812 91.144531 68.773438 82.0625 68.652344 82.113281 C 68.53125 82.160156 60.65625 91.015625 51.144531 101.792969 C 41.636719 112.570312 33.335938 121.914062 32.699219 122.558594 L 31.542969 123.730469 Z M 72.023438 70.160156 L 68.222656 66.558594 L 79.699219 54.519531 C 89.382812 44.359375 91.175781 42.335938 91.175781 41.554688 C 91.175781 40.757812 90.089844 39.621094 83.265625 33.265625 C 78.914062 29.214844 75.433594 25.769531 75.53125 25.613281 C 75.625 25.457031 76 25.328125 76.355469 25.328125 C 76.757812 25.328125 79.144531 23.289062 82.6875 19.914062 C 85.8125 16.933594 88.523438 14.496094 88.710938 14.496094 C 88.898438 14.496094 92.289062 17.652344 96.246094 21.503906 C 103.753906 28.816406 104.277344 29.179688 105.457031 27.878906 C 105.773438 27.527344 106.261719 27.242188 106.542969 27.246094 C 106.824219 27.246094 108.054688 28.101562 109.277344 29.140625 C 110.699219 30.351562 111.84375 31.070312 112.449219 31.128906 L 113.390625 31.222656 L 112.328125 32.429688 C 111.742188 33.09375 111.21875 34.054688 111.15625 34.570312 C 111.0625 35.394531 111.355469 35.769531 113.636719 37.746094 C 115.0625 38.976562 116.382812 39.984375 116.578125 39.988281 C 116.894531 39.992188 131.109375 67.402344 130.921875 67.648438 C 130.878906 67.707031 125.417969 64.863281 118.785156 61.324219 L 106.734375 54.894531 L 103.0625 51.261719 C 101.046875 49.265625 99.304688 47.632812 99.195312 47.632812 C 99.082031 47.632812 93.800781 53.507812 87.457031 60.695312 C 81.113281 67.878906 75.898438 73.757812 75.875 73.757812 C 75.847656 73.757812 74.117188 72.136719 72.023438 70.160156 Z M 72.023438 70.160156 "/> -->
					<!-- GEMAS -->
					<g>
						<path style=" stroke:none;fill-rule:nonzero;fill:#990F02;fill-opacity:1;" d="M 98.109375 28 L 86.339844 37.078125 L 97.34375 42.480469 Z M 98.109375 28 "/>
						<path style=" stroke:none;fill-rule:nonzero;fill:#990F02;fill-opacity:1;" d="M 102.460938 28.242188 L 101.71875 42.722656 L 113.226562 38.476562 Z M 102.460938 28.242188 "/>
						<path style=" stroke:none;fill-rule:nonzero;fill:#990F02;fill-opacity:1;" d="M 113.09375 76.257812 L 114.867188 42.546875 L 101.457031 47.46875 L 101.367188 49.351562 L 100.121094 72.867188 L 111.429688 74.636719 Z M 113.09375 76.257812 "/>
						<path style=" stroke:none;fill-rule:nonzero;fill:#990F02;fill-opacity:1;" d="M 94.0625 71.925781 L 95.789062 72.1875 L 97.101562 47.25 L 84.285156 40.949219 L 82.511719 74.855469 L 89.097656 76.410156 Z M 94.0625 71.925781 "/>
						<path style=" stroke:none;fill-rule:nonzero;fill:#990F02;fill-opacity:1;" d="M 43.925781 40.6875 L 35.351562 52.804688 L 47.46875 54.730469 Z M 43.925781 40.6875 "/>
						<path style=" stroke:none;fill-rule:nonzero;fill:#990F02;fill-opacity:1;" d="M 61.46875 46.222656 L 48.167969 39.59375 L 51.710938 53.660156 Z M 61.46875 46.222656 "/>
						<path style=" stroke:none;fill-rule:nonzero;fill:#990F02;fill-opacity:1;" d="M 60.003906 86.515625 L 62.410156 85.3125 L 73.238281 85.3125 L 64.226562 49.613281 L 52.871094 58.273438 Z M 60.003906 86.515625 "/>
						<path style=" stroke:none;fill-rule:nonzero;fill:#990F02;fill-opacity:1;" d="M 44.691406 94.171875 L 56 88.507812 L 48.628906 59.324219 L 34.539062 57.09375 L 43.902344 94.238281 Z M 44.691406 94.171875 "/>
						<path style=" stroke:none;fill-rule:nonzero;fill:rgb(0%,0%,0%);fill-opacity:1;" d="M 79.253906 85.3125 L 85.136719 79.996094 L 75.863281 77.808594 L 77.765625 85.3125 Z M 79.253906 85.3125 "/>
						<path style=" stroke:none;fill-rule:nonzero;fill:rgb(0%,0%,0%);fill-opacity:1;" d="M 37.625 87.195312 L 37.1875 87.5 L 33.664062 95.265625 L 39.507812 94.675781 Z M 37.625 87.195312 "/>
						<path style=" stroke:none;fill-rule:nonzero;fill:rgb(0%,0%,0%);fill-opacity:1;" d="M 129.0625 109.375 L 121.777344 109.375 L 118.125 87.257812 L 109.375 78.75 L 95.441406 76.5625 L 82.644531 88.15625 L 92.992188 94.367188 C 94.039062 95.003906 94.367188 96.335938 93.757812 97.367188 C 93.339844 98.066406 92.617188 98.4375 91.875 98.4375 C 91.480469 98.4375 91.109375 98.328125 90.757812 98.132812 L 76.824219 89.773438 C 76.824219 89.773438 76.738281 89.730469 76.714844 89.6875 L 63.4375 89.6875 L 45.9375 98.4375 L 24.0625 100.625 L 19.6875 109.375 L 10.9375 109.375 C 9.734375 109.375 8.75 110.359375 8.75 111.5625 C 8.75 112.765625 9.734375 113.75 10.9375 113.75 L 129.0625 113.75 C 130.265625 113.75 131.25 112.765625 131.25 111.5625 C 131.25 110.359375 130.265625 109.375 129.0625 109.375 Z M 129.0625 109.375 "/>
						<g style="fill:rgb(0%,0%,0%);fill-opacity:1;">
						<use xlink:href="#glyph0-1" x="0" y="172.812256"/>
						<use xlink:href="#glyph0-2" x="7.897644" y="172.812256"/>
						<use xlink:href="#glyph0-3" x="12.19574" y="172.812256"/>
						<use xlink:href="#glyph0-4" x="18.33313" y="172.812256"/>
						<use xlink:href="#glyph0-5" x="24.382935" y="172.812256"/>
						<use xlink:href="#glyph0-3" x="27.982483" y="172.812256"/>
						<use xlink:href="#glyph0-6" x="34.064331" y="172.812256"/>
						<use xlink:href="#glyph0-7" x="40.74646" y="172.812256"/>
						<use xlink:href="#glyph0-8" x="43.786316" y="172.812256"/>
						<use xlink:href="#glyph0-9" x="50.239868" y="172.812256"/>
						<use xlink:href="#glyph0-7" x="56.321716" y="172.812256"/>
						<use xlink:href="#glyph0-10" x="59.361572" y="172.812256"/>
						<use xlink:href="#glyph0-11" x="67.259216" y="172.812256"/>
						<use xlink:href="#glyph0-6" x="73.941345" y="172.812256"/>
						<use xlink:href="#glyph0-12" x="80.623474" y="172.812256"/>
						<use xlink:href="#glyph0-7" x="83.66333" y="172.812256"/>
						<use xlink:href="#glyph0-13" x="86.703186" y="172.812256"/>
						<use xlink:href="#glyph0-14" x="94.688416" y="172.812256"/>
						<use xlink:href="#glyph0-2" x="101.370544" y="172.812256"/>
						<use xlink:href="#glyph0-7" x="105.625916" y="172.812256"/>
						<use xlink:href="#glyph0-10" x="108.665771" y="172.812256"/>
						<use xlink:href="#glyph0-8" x="116.552734" y="172.812256"/>
						<use xlink:href="#glyph0-6" x="123.234863" y="172.812256"/>
						<use xlink:href="#glyph0-12" x="129.916992" y="172.812256"/>
						<use xlink:href="#glyph0-15" x="132.956848" y="172.812256"/>
						<use xlink:href="#glyph0-15" x="135.996704" y="172.812256"/>
						<use xlink:href="#glyph0-4" x="139.03656" y="172.812256"/>
						<use xlink:href="#glyph0-16" x="145.118408" y="172.812256"/>
						</g>
					</g>

				</g>
			</g>
			<g class="st7">
				<g>
					<path class="st8" d="M177.2,269.9c-1.7,0-3-1.4-3-3c0-1.7,1.4-3,3-3c1.7,0,3,1.4,3,3S178.9,269.9,177.2,269.9z M177.2,265.1
						c-1,0-1.8,0.8-1.8,1.8s0.8,1.8,1.8,1.8s1.8-0.8,1.8-1.8S178.2,265.1,177.2,265.1z"/>
				</g>
			</g>
			<g class="st7">
				<g>
					<path class="st8" d="M135.9,79.2c-2.3,0-4.3-1.9-4.3-4.3c0-2.3,1.9-4.3,4.3-4.3c2.3,0,4.3,1.9,4.3,4.3
						C140.1,77.3,138.2,79.2,135.9,79.2z M135.9,72c-1.6,0-3,1.3-3,3c0,1.6,1.3,3,3,3c1.6,0,3-1.3,3-3C138.8,73.3,137.5,72,135.9,72
						z"/>
				</g>
			</g>
		</g>
	</g>
</g>
<g>
	<g>
		<g>
			<g>
				<g>
					<g>
						<g>
							<g>
								<g>
									<path class="st5" d="M958.4,432.8c0,0-3.8,3-14.4,3.7c-12.5,0.9-14.4-1-14.4-1l-1.6-31c-2.4-47.2-8.2-94.3-17.4-140.7
										l-3.9-19.6l9.2,1l15.7-10.1c0.5-0.3,0.9-0.8,1.2-1.4l0,0c1.1-2.9,4-9.5,4.5-6.4l8.8,59.7c4.3,29.1,7.3,58.3,8.9,87.6
										L958.4,432.8z"/>
								</g>
							</g>
						</g>
					</g>
				</g>
			</g>
			<g>
				<g>
					<g>
						<g>
							<g>
								<g>
									<g>
										<path class="st25" d="M857.6,436.7c-0.3,0.7,0.1,1.4,0.8,1.5c1.2,0.3,3,0.7,3.8,0.8c6.9,0.9,12.1,0.9,16.5,0.8
											c5.7-0.1,14.7-2.3,14.7-2.3v1.9h9.1c0,0,0.9-10.1-0.5-13.3c-0.7-1.7-5.1-6.1-5.1-6.1l-1.3,3.1l-18.2-4.6
											c0,0,6.6,8.1-1.4,10.9c-0.1,0.1-0.3,0.1-0.4,0.2c-0.4,0.2-0.6,0.6-1,0.8c-0.2,0.1-1.8,0.4-2.4,0.5
											c-0.2,0.1-0.3,0.1-0.5,0.1c-0.1,0-0.2,0.1-0.3,0.1c-0.2,0-0.4,0.1-0.5,0.1c-0.7,0.2-1.6,0.4-2.4,0.6h-0.1
											c-0.2,0-0.3,0.1-0.5,0.1l0,0c-0.1,0-0.2,0-0.3,0.1c-6.4,1.2-8.9,2.6-9.6,3.7c-0.1,0.1-0.1,0.2-0.1,0.2
											C857.9,435.9,857.8,436.3,857.6,436.7z"/>
									</g>
								</g>
							</g>
						</g>
					</g>
				</g>
			</g>

			<g transform="translate(690,290)">
				<!-- ... EN PIES DE CHICO -->
				<!-- <path transform="translate(730,315)" class="st41" > -->
				<!-- <path transform="translate(730,315)" class="st41" d="m51.145 23.123c-5.363 1.8181-9.9832 5.2866-14.844 8.1875-4.8979 2.6322-8.5702 6.5644-12.969 8.5-7.2696 2.4326-12.586 8.6226-18.062 13.656l0.5938 0.125c5.3357-5.3143 10.788-9.8841 17.781-12.844 5.0525-1.9797 9.2673-5.4823 13.531-8.75 3.843-2.9165 7.5457-5.7084 11.719-6.8438-3.2227 3.3638-5.0075 7.4166-8.2188 11-5.7835 4.1988-8.111 10.263-10.281 16.875-0.93729 3.3659-1.503 6.8461-2.0938 10.344-2.8276 1.6839-4.6538 4.1054-7.3125 6.0312-4.9102 1.4144-7.9636 5.2738-10.688 9.375l0.2188 0.1562c2.5364-4.2273 5.8986-6.6132 10.781-8.0938 2.1892-1.7034 4.3698-3.4475 6.5938-5.125-0.35617 2.0151-0.74816 4.023-1.25 6.0312-1.7307 3.8355-3.0419 7.8463-4.4375 11.812-1.6633 4.6977-3.4264 9.3844-4.8125 11.562l0.2188 0.4062c1.5251-2.3966 3.9898-6.6994 5.6562-11.406 1.6665-4.7068 3.1557-9.6865 4.2812-11.938 1.3682-6.2707 2.2912-11.629 3.6875-17.906 1.6579-5.9536 4.5559-12.429 10.781-17.094l0.0312-0.0312 0.0312-0.0312c4.0124-4.4436 5.2219-8.5465 9.5938-12 5.6716 1.9861 8.5855 4.3916 14.312 7.25 4.2858 2.7238 9.0287 4.0086 12.531 7.875 2.7022 4.5014 7.5066 7.228 11.25 10.812 2.3903 3.7218 5.4213 6.9175 8.7812 9.7188 3.1399 2.6082 5.9863 5.098 7.4375 8.25-1.5293-3.4132-3.6541-6.4337-6.7812-9.0312-3.2248-2.6787-6.6326-5.423-8.9688-9.125l-0.0312-0.0312-0.0312-0.0312c-3.4-2.9566-6.6617-5.8374-9.125-9.5312 2.8248-1.6864 3.9684-2.6324 5.0312-3.625 0.93894-0.87683 2.012-1.8857 4.0625-3.4375 0.18127 3.3044 2.7992 5.2653 5.0625 7.25 2.032 2.4801 3.9768 4.9797 5.0312 8.0312l0.125-0.1875c-0.58133-2.9066-2.6081-6.1546-4.3437-8.4688-2.2592-1.6502-3.5297-3.7354-4.25-6.2812 2.0868 1.4054 4.8868 2.3449 7.8438 3.25 3.6369 1.1132 7.4176 2.2324 10.125 4.125 1.4232 3.8764 5.1339 9.2606 7.6562 12.375l0.375-0.1562c-2.5134-3.1034-5.453-9.3928-6.7188-13-3.0555-2.3659-7.4756-3.1806-11.156-4.3125l-9.5-4.8437c-2.8271 2.0512-3.9091 3.9167-4.9688 4.9062-1.0013 0.93504-2.1392 2.2431-4.7188 3.8438-0.29158-0.46138-0.57843-0.91702-0.84375-1.4062v-0.03125l-0.0312-0.0625c-3.4194-4.0545-8.8936-5.0176-13.25-7.7188h-0.031242l-0.0312-0.0312c-4.5656-2.7917-9.483-5.5833-15.375-8.375zm13 19.688l0.0625 0.0625c3.5508 1.189 4.9459 4.1796 6.3438 6.7188 1.2292 2.2328 2.125 4.7869 3.625 7.2188l-1.0312-0.125-27.25 6.0938c-4.0165 0.3674-6.2489-1.6687-6.6875-5.3125l-0.1875-0.0938c0.11588 4.4266 2.5804 6.3642 6.7188 6.4062l0.0938 5.0938 0.1875 21.469c-1.1347 2.1697-3.6554 3.2201-5.6875 4.5312-1.8742 1.3691-3.8392 2.6648-4.4688 4.875l0.2812-0.0312c0.50439-1.7709 2.6435-3.0273 4.5312-4.4062 1.8321-1.3383 4.987-2.2079 5.9062-4.625l0.8125 0.4688 6.875-1.4375 5.5-1.5 0.5312-0.125 0.7812-0.1562c0.10361 0.12893 0.17859 0.27733 0.28125 0.40625l-1.8125 0.375 2.1562 2.5 1.5938-0.375c0.26607 0.36118 0.52896 0.73518 0.78126 1.0938l-1.6563 0.4688 1.7813 2.25 1.4375-0.4062c0.12816 0.2089 0.25399 0.41795 0.375 0.625l-1.8438 0.4688 1.4688 2.125 1.5312-0.4062c0.023079 0.050117 0.039986 0.1063 0.0625 0.15625 0.070679 0.15683 0.12095 0.33725 0.1875 0.5l-1.3125 0.2812 0.4062 2.7812 1.7188-0.3438c0.098419 0.59296 0.14604 1.1665 0.09375 1.6562-0.13928 1.3043-1.9154 4.3363-3.25 5.6562l-0.5938-1.1875-3.7813 0.125 0.7812 1.875c-0.71534 0.1656-1.4353 0.33529-2.1562 0.5l-0.7188-1.4375-3.4375 0.1562 0.8125 2.0312c-0.88145 0.19609-1.7901 0.39917-2.6875 0.59375l-0.8125-1.5625-3.4375 0.125 0.9062 2.1562c-1.3374 0.27945-2.017 0.38049-3.4062 0.65625v0.8125c7.4603-1.5205 13.498-3.0069 20.094-4.5938-0.55728 0.86686-1.065 1.5817-1.4688 2-6.1496 1.4831-11.758 2.8531-18.094 3.9375l-0.0312 0.5c1.4623-0.2919 2.4797-0.511 3.9375-0.8125l2.4375 5.9062-4.3438 0.7812-0.0625 0.5938 23.375-4.1562c-0.5738 0.51169-1.2094 1.0103-1.875 1.5312l-21.438 3.8438-0.0938 0.5625 5.3438-0.9375 0.7188 1.7188 4.4688-0.9375-0.8125-1.5625 1.5-0.25 0.5 1.25 4.4688-0.9375-0.5312-1.0938 1.4688-0.25 0.5938 1.4688 4.5-0.9062-0.6562-1.3438 4.5938-0.8125 0.5 1.25 4.5-0.9375-0.5312-1.0938 6.7188-1.1875 0.375 1.0312 4.5625-0.6562-0.5312-1.125 2.4062-0.4375 0.5 1.1562 4.5-0.9375-0.5-1 1.6875-0.3125 0.5625 1.375 4.5-0.9375-0.5938-1.2188 1.4375-0.25 0.4062 1.0312 3.875-0.8125 0.625-0.125-0.4375-0.875 1.5-0.25 0.5625 1.3125 4.5-0.9375-0.5938-1.1875 1.4375-0.25 0.5312 1.25 4.0312-0.9688-0.4375-1 0.8125-0.2812-0.4062-0.5625-3.125 0.5625c0.57105-0.36891 1.0862-0.81876 1.5312-1.3125l1.25-0.2188-0.1875-0.5625-0.5312 0.0938c1.0634-1.4764 1.682-3.3088 1.8125-5.2188-0.026329-1.9709-0.70766-3.3605-1.8438-4.2188 0.59985-3.0576 0.3328-6.3581 0.75-9.4688l-8.4062-5.3125c-0.64574-1.4765-1.268-2.6597-2.2812-3.4688-1.6554-1.2595-3.7885-1.8562-5.6875-2.0625-3.6183 1.2713-7.5287 2.4489-9.4375 5.75l-10.781 3.7812 0.3438 0.125c0.30544 1.7296 0.78949 5.5123 0.96875 7.875-0.6667 1.2546-1.0869 2.6558-1.1875 4.125 0.01841 1.3777 0.35321 2.4776 0.9375 3.3125-0.31504 0.070511-0.59904 0.14931-0.90625 0.21875l-0.3125-0.6875-3.3438 0.3125 0.4062 1.0938c-0.16598 0.038254-0.333 0.086487-0.5 0.125-0.2079-2.0441-0.90319-4.0166-2-5.9375l1.7812-0.375-1.6875-2.3438-1.6875 0.3438c-0.25989-0.34811-0.55078-0.70966-0.84375-1.0625l1.5938-0.4375-1.3438-2.2188-2.125 0.5625c-0.20453-0.21143-0.4122-0.4126-0.625-0.625l1.3438-0.375-2.125-2.3125-1.5625 0.4688c-0.24203-0.2198-0.50241-0.43612-0.75-0.65625l1.3125-0.3125-1.9688-2.375-1.9375 0.4375c-0.10651-0.089745-0.20555-0.19157-0.3125-0.28125l1.4062-0.2812-0.125-0.125 7.1875-2.2812-0.1562-20.312-0.5312-6.5c-1.7438-2.5146-3.1068-5.2876-4.5312-7.875-1.4595-2.651-3.4811-5.04-7.2812-6.3125zm8.6875 14.25l1.5938 0.125c0.032669 0.05048 0.060493 0.10591 0.09375 0.15625l-27.188 6.3125-0.4062-0.4375 25.906-6.1562zm2.8438 0.6562l0.0938 5.25-28.156 6.5938-0.1562-5.1875 28.219-6.6563zm-29.312 5.875l0.4688 0.4062 0.0312 4.9375-0.4375-0.4375-0.0625-4.9063zm29.438 0.2188l0.2812 19.75-2.9062 0.9375-1.5312 0.4688-0.2188-20.188 4.375-0.9688zm-4.8125 1.0625l0.2188 19.812-1.0312-1.8125 0.0625-17.844 0.75-0.1562zm-1.25 0.2812v17.281l-13.656-7.625 0.0312-6.6875 13.625-2.9688zm-1.75 1.1562l-0.125 4.4375-3.125-0.4375 0.0938-2.3125-0.25-0.125-0.125 2.375-3.0938-0.4375v-1.9688l-0.2812-0.0938v2.0312l-0.6875-0.0938v0.125l0.7188 0.125v2.5625l-1.6562-0.6875-0.0938 0.3438 1.75 0.6875 0.0312 2.2812c-1.0349-0.34243-2.0548-0.71697-3.0625-1.125l0.125-5.2188-0.1562-0.125-0.2188 5.25c-0.37645-0.15693-0.72613-0.3215-1.0938-0.5l-0.25 0.1875c0.43774 0.22446 0.88644 0.4048 1.3438 0.59375l-0.0312 0.5938 0.25 0.1875 0.0312-0.6875c0.99753 0.39847 2.0265 0.76627 3.0625 1.0938v0.53125h0.25v-0.4375c0.91128 0.28747 1.8298 0.54936 2.7188 0.875l-0.0625 1.0938 0.375 0.0938 0.0312-1.0625c0.41054 0.15641 0.82136 0.32044 1.2188 0.5v-0.1875c-0.39248-0.17973-0.78638-0.34174-1.1875-0.5l0.0937-2.0625 1.6875 0.6562v4.3438l0.3438 0.125s-0.073227-3.0107-0.09375-4.3438l2.3438 0.9062 0.0312-0.25-2.375-0.9688c-0.001831-0.13078 0-0.52522 0-0.5625h-0.25v0.46875l-1.6875-0.6875 0.1563-3.375 3.125 0.5312-0.0312 0.625 0.25 0.25 0.0312-0.8125 0.8125 0.125 0.0312-0.3438-0.8438-0.125 0.1562-4.4062-0.2812-0.0625zm-12.438 1.9375l-0.0625 6.0312-1.3438-2-0.0312-3.7188 1.4375-0.3125zm-1.9375 0.4375l0.1951 20.846-5.6638 1.154-0.4062-20.719 5.875-1.2812zm-7.0625 0.5625l0.8125 0.8125 0.0312 20.438-0.9688-0.4375 0.125-20.812zm14.812 0.7188l3.0625 0.5312-0.1562 3.2812-2.875-1.1875-0.0312-2.625zm0.0312 2.9688l2.8438 1.125-0.125 2.0625c-0.89179-0.33841-1.8117-0.63768-2.7188-0.9375v-2.25zm-7.25 0.0625l1.3438 2.0938 14.25 7.7812v0.0625l1.3125 2.25-1.875 0.625-1.625-1.5938-1.625 0.4062c-0.16989-0.13921-0.33002-0.26737-0.5-0.40625l1.3438-0.2812-2.2812-1.8125-1.2813 0.2812c-0.16179-0.13174-0.3078-0.27502-0.46875-0.40625l1.3125-0.2812-2.0625-1.9688-1.4688 0.4375c-0.09993-0.08284-0.21329-0.16744-0.3125-0.25l1.0938-0.3438-1.9062-1.5-1.0938 0.2188c-0.26141-0.22535-0.52859-0.43388-0.78125-0.65625l0.5312-0.1562-1.125-1.3125-0.75 0.25c-0.19103-0.17655-0.37909-0.35707-0.5625-0.53125l0.0625-0.0312 0.3438-0.125-0.7812-0.6562-0.4062 0.0625c-0.2296-0.22852-0.47411-0.46381-0.6875-0.6875v-1.4688zm0.0312 1.875c6.0301 6.3078 18.004 14.245 23.031 21.031 1.927 2.6013 3.0958 5.4166 3.3438 8.2188-0.46708 0.10804-0.94402 0.2361-1.4062 0.34375-0.095589-3.082-1.1846-5.9823-3.2812-8.8125-5.2043-7.0253-15.733-14.04-21.625-20.219-0.00996-0.010452-0.021301-0.02079-0.03125-0.03125l-0.0312-0.0312v-0.5zm1 0.5312l0.4062 0.1875-0.2188 0.0938c-0.087021-0.08371-0.1649-0.16688-0.25-0.25l0.0625-0.0312zm-1 0.4375c0.099209 0.10326 0.21108 0.20884 0.3125 0.3125l-0.3125 0.1875v-0.5zm0.4375 0.4375c0.1739 0.1765 0.35136 0.35364 0.53125 0.53125l-0.6562 0.2188c-0.095741-0.19687-0.20436-0.40429-0.28125-0.59375l0.4062-0.1562zm2.2188 0.1562l0.875 0.9062-0.4062 0.0938c-0.31076-0.27546-0.64246-0.54213-0.9375-0.8125l0.4688-0.1875zm-1.4688 0.5938c0.235 0.22961 0.47484 0.45615 0.71875 0.6875l-1.0625 0.25c-0.12578-0.21362-0.26652-0.41802-0.375-0.625l0.7188-0.3125zm-1.1875 0.2812c1.4102 3.1214 4.648 6.4537 7.3438 9.75 2.8322 3.4632 5.7927 7.1487 7.2188 10.312 0.71304 1.5819 1.1457 3.073 1 4.4375-0.089706 0.84013-1.3484 3.372-2.625 5.4688-0.37025 0.087524-0.7548 0.16274-1.125 0.25 1.3289-1.5199 2.6634-4.0414 2.8125-5.4375 0.17158-1.6069-0.24109-3.285-1-4.9688-1.5178-3.3674-4.4202-6.8523-7.25-10.312-2.5348-3.0995-5.0342-6.1643-6.375-8.9375v-0.5625zm2.1562 0.625c0.23277 0.21882 0.47908 0.43599 0.71875 0.65625l-1.4688 0.3125c-0.1492-0.22435-0.27204-0.43745-0.40625-0.65625l1.1562-0.3125zm2.9688 0.4375l1.5 1.125-0.8438 0.2188c-0.48635-0.4061-0.94181-0.7895-1.4062-1.1875l0.75-0.1562zm-5.0312 0.125c0.10138 0.21125 0.23301 0.41534 0.34375 0.625l-0.3438 0.0625 0.875 2.3125 0.75-0.25c0.064251 0.095924 0.090439 0.21651 0.15625 0.3125l-0.8438 0.25 1.1562 1.6562 0.9688-0.2188c0.10667 0.14011 0.20328 0.29657 0.3125 0.4375l-1.3125 0.2812 1.6562 1.7812 1.125-0.2188c0.15751 0.19389 0.30812 0.39712 0.46875 0.59375l-1.6875 0.4062 1.5938 1.4375-5.2188 1.4656-0.0938-10.903 0.0938-0.0312zm51 0.2188c1.9605 0.55592 3.9235 1.1341 4.9688 1.9688 1.1573 0.92413 2.1353 2.0699 3 4.1562 0.32356 0.47565 0.70323 0.85042 1.125 1.2188l2.6875 2.0312-19.812 5.8438-0.125-0.0938h0.15625c0.78988-0.90797 1.2366-2.2914 1.6562-3.7188 0.41968-1.4274 0.53748-3.214 0.90625-4.0938-0.22074-1.7727 0.95821-2.829 1.7812-4.3125 0.62707-0.97934 1.6125-1.8182 3.25-2.7812 1.106 1.2757 1.1516 1.7794 0.90625 3.25 0.05529 0.87688 0.48858 1.6874 0.84375 2.4688h0.3125c-0.30456-0.74345-0.49259-1.5838-0.71875-2.3438 0.3837-1.5017-0.080009-2.6281-0.9375-3.5938zm-48 0.0938c0.47067 0.42982 0.94563 0.87777 1.4375 1.3125l-1.875 0.5c-0.38121-0.50087-0.73259-0.98538-1.0625-1.4688l1.5-0.3438zm46.906 0.125c-0.95543 0.58556-2.6657 1.3839-3.4062 2.2188-0.80622 1.2592-1.181 2.7622-1.625 4.8125-0.47335 1.263-0.79713 2.5762-1.1562 3.875-0.38399 1.306-0.54815 3.1168-1.0312 3.875l-7.25-5.4375c2.1828-0.70248 3.9196-2.121 5.875-3.25 1.6519-3.6097 5.0288-5.2899 8.5938-6.0938zm-49.406 0.4688c0.2816 0.51274 0.57462 1.022 0.90625 1.5312l-0.375 0.125-0.7188-1.625 0.1875-0.0312zm7.0938 0.625l1.5938 1.5312-1 0.2188c-0.56301-0.45958-1.1408-0.92302-1.6875-1.375l1.0938-0.375zm-2.9375 0.2812c0.10094 0.088867 0.1796 0.1922 0.28125 0.28125l-1.9688 0.5938c-0.073391-0.093811-0.14663-0.18781-0.21875-0.28125l1.9062-0.5938zm0.5625 0.5312c0.48494 0.42308 1.003 0.85444 1.5 1.2812l-2.5625 0.5312c-0.32191-0.39132-0.66103-0.76793-0.96875-1.1562l2.0312-0.6562zm-3.1875 1.0312c0.25576 0.36401 0.53663 0.72647 0.8125 1.0938l-0.5938 0.125-0.8125-1.0312 0.5938-0.1875zm4.9688 0.4688c0.15679 0.1344 0.31118 0.27153 0.46875 0.40625l-2.7188 0.5938c-0.11514-0.13803-0.2294-0.26814-0.34375-0.40625l2.5938-0.5938zm3.1875 0.125l1.5625 1.25-0.9688 0.1875c-0.50974-0.41578-0.9941-0.80702-1.5-1.2188l0.9063-0.2188zm-2.4063 0.5625c0.46887 0.40038 0.93412 0.78466 1.4062 1.1875l-3.1875 0.6562c-0.34588-0.41046-0.68341-0.80346-1.0312-1.2188l2.8125-0.625zm-4.1875 0.9062c0.31174 0.39837 0.60839 0.81126 0.9375 1.2188l-0.7188 0.1562-1.0312-1.1875 0.8125-0.1875zm55.438 0.5l6.9688 4.0938-23.344 7.25-10.688-8.0312 8.8125-3.2188c-0.026398 0.055267-0.068169 0.10046-0.09375 0.15625-1.4701 0.90528-2.8935 1.6662-4.3438 2.4688l-2.3438 0.875 8.875 6.5 21.062-6.2812-0.7812-0.4375c-1.2175-1.0749-2.8324-1.6458-3.9062-2.875-0.073517-0.17739-0.14763-0.32917-0.21875-0.5zm-45.875 0.0312l1.3438 1.5938-0.9375 0.1875c-0.56632-0.47286-1.1146-0.9673-1.6875-1.4375l1.2812-0.3438zm-3.5938 0.0625c0.1818 0.15527 0.34954 0.31318 0.53126 0.46875l-3.3125 0.7812c-0.15535-0.18573-0.31079-0.37476-0.46875-0.5625l3.25-0.6875zm0.75 0.6562c0.53707 0.46042 1.0622 0.91247 1.5938 1.375l-3.875 0.7188c-0.1227-0.14912-0.25256-0.2878-0.375-0.4375-0.21965-0.26858-0.45852-0.56906-0.6875-0.84375l3.3438-0.8125zm-4.8125 1.1562c0.20877 0.25526 0.41187 0.48938 0.625 0.75 0.12827 0.15684 0.24784 0.31181 0.375 0.46875l-0.875 0.1875-1.375-1.0938 1.25-0.3125zm6.7188 0.5c0.10549 0.092186 0.2074 0.18901 0.3125 0.28125l-3.9375 0.8438c-0.089409-0.10812-0.19175-0.2041-0.28125-0.3125l3.9063-0.8125zm3.5625 0.0625l1.625 1.75-0.8438 0.1562c-0.62653-0.55341-1.254-1.1028-1.9062-1.6562l1.125-0.25zm-2.8125 0.5938c0.60893 0.53824 1.1938 1.0855 1.7812 1.625l-4.5312 0.8438c-0.43638-0.53642-0.86409-1.083-1.3125-1.625l4.0625-0.8438zm18.219 0.4375l11.031 8.3125v0.03125l0.0625 6.6562c-0.69183 0.8945-1.1995 1.9496-1.5312 3.0625-3.0138-1.2595-5.5092-3.435-7.2188-6.0625-1.4228-4.3107-1.7771-8.0631-2.3438-12zm-23.812 0.75c0.42889 0.5433 0.84362 1.0842 1.25 1.625l-1.0625 0.375-1.5938-1.7188 1.4062-0.2812zm59 0.3438c-0.50506 2.9331-0.2148 5.9855-0.65625 8.875-0.93955-0.5051-2.095-0.73149-3.4375-0.65625-3.3751 1.0239-5.2975 4.0462-5.75 7.375-1.5272 0.29438-2.8805 0.48246-4.375 0.65625l-0.1875-0.3438c-0.27404-3.331-2.54-4.8709-5.8125-4.6875-1.3451 0.40804-2.4599 1.1598-3.3437 2.0938l0.0938-6.0625 23.469-7.25zm-51.281 0.4062c0.25993 0.24097 0.52731 0.47772 0.78125 0.71875l-4.4688 1.3125c-0.25682-0.33046-0.51456-0.66821-0.78125-1l4.4688-1.0312zm3.7812 0.3438l1.5312 1.5625-0.8438 0.2188c-0.49866-0.48914-1.0278-0.97625-1.5625-1.4688l0.875-0.3125zm-2.625 0.75c0.52136 0.50138 1.0431 0.99911 1.5312 1.5l-4.9688 1.3125c-0.35614-0.50939-0.73398-1.0204-1.125-1.5312l4.5625-1.2812zm-6.1875 1.75c0.35966 0.51963 0.70756 1.0199 1.0312 1.5312l-1.0938 0.2812-1.125-1.4688 1.1875-0.3438zm8.0625 0.125c0.1935 0.20229 0.4068 0.39167 0.59375 0.59375l-5.1875 1.375c-0.12775-0.19956-0.27151-0.3942-0.40625-0.59375l5-1.375zm4.3125 0.125l0.8438 1.3125-1.2188 0.3438c-0.36838-0.42777-0.74691-0.84814-1.1562-1.2812l1.5312-0.375zm-3.3438 0.875c0.38424 0.42553 0.7435 0.82592 1.0938 1.25l-5.6562 1.5c-0.23994-0.46357-0.49604-0.94402-0.78125-1.4062l5.3438-1.3438zm1.4375 1.6875c0.21279 0.26696 0.42783 0.54635 0.625 0.8125 0.040245 0.054337 0.085495 0.10173 0.125 0.15625l-6.1875 1.2812c-0.054245-0.12476-0.10068-0.25171-0.15625-0.375-0.056931-0.12627-0.12669-0.24891-0.1875-0.375l5.7812-1.5zm-8.5938 0.125c0.27344 0.48183 0.52121 0.96793 0.75 1.4375l-0.9688 0.25-1.0938-1.3438 1.3125-0.3438zm12.938 0.625l0.8438 1.4688-1.1875 0.25c-0.29985-0.49223-0.61959-0.9814-0.96875-1.4688l1.3125-0.25zm7.0625 0.4375c0.28584 1.2648 0.61597 2.5609 1.0625 3.9062 0.97081 1.664 2.191 2.9438 3.5938 4-0.061958 0.031769-0.12279 0.065544-0.1875 0.09375-3.2061 0.47665-4.9521-1.9995-5.3438-4.7812 0.056252-1.1412 0.38925-2.2222 0.875-3.2188zm-10.375 0.2188c0.33742 0.49425 0.66087 0.99332 0.9375 1.5l-6.625 1.4375c-0.15869-0.55338-0.36825-1.109-0.59375-1.6562l6.2812-1.2812zm41.156 1.2188c2.8558-0.091026 4.5986 2.4444 4.9688 5.0625-0.1593 3.303-2.4362 5.9558-5.4062 7.25-3.2061 0.47665-4.9521-1.9995-5.3438-4.7812 0.1616-3.2782 2.2704-6.1805 5.2188-7.4688 0.20044-0.03009 0.37211-0.056419 0.5625-0.0625zm-49.375 0.4375c0.20798 0.55814 0.40236 1.1239 0.53125 1.6875l-1.3438 0.2812-0.2188-1.75 1.0313-0.2188zm9.4062 0.375c0.98564 1.9679 1.5432 4.0049 1.625 6.0312-1.6185 0.37774-3.1617 0.75261-4.75 1.125l-0.4688-0.9688-3.7812 0.125 0.7188 1.6562c-0.82405 0.19421-1.6846 0.40066-2.5 0.59375 1.2798-1.8901 2.4922-4.049 2.5938-5 0.072533-0.67931-0.017609-1.393-0.1875-2.125l6.75-1.4375zm40.156 0c-1.3502 0.07814-2.4846 1.0976-3.7188 2.4688-1.2901 2.9033-1.776 4.7865-0.0625 7.25 2.7242 2.0172 4.4016 0.79626 6.375-1.375 1.2873-2.7896 1.8397-4.8079 0.125-7.3125-1.0267-0.76129-1.9086-1.0781-2.7188-1.0312zm-0.0938 0.5625c0.72151-0.036224 1.4852 0.17022 2.2812 0.65625 1.8458 2.1308 1.2112 4.6413 0 6.9062-1.4944 1.9448-3.3811 2.6517-5.5 1.3438-1.8392-2.1361-1.2174-4.6407 0-6.9062 0.9311-1.2213 2.0162-1.9396 3.2188-2zm-40.031 0.7812l-6.0938 1.4062-0.2812 2.5312 7.4375-1.125-1.0625-2.8125zm-0.1562 0.5l0.5938 1.875-6.3125 0.9688 0.1562-1.5938 5.5625-1.25zm23.969 0.3438c2.8558-0.091026 4.5986 2.4444 4.9688 5.0625-0.15478 3.2092-2.3099 5.7931-5.1562 7.125l-1 0.1875c-1.7067 0.009567-2.9193-0.89014-3.6875-2.1875-0.15365-0.25948-0.28915-0.52492-0.40626-0.8125-0.2342-0.57516-0.41-1.2045-0.49999-1.8438 0.16161-3.2782 2.2704-6.1805 5.2187-7.4688 0.20044-0.03009 0.37212-0.056435 0.5625-0.0625zm0.1875 0.8125c-1.3502 0.07814-2.4846 1.0976-3.7187 2.4688-1.2901 2.9033-1.776 4.7865-0.0625 7.25 2.7242 2.0172 4.4016 0.79626 6.375-1.375 1.2873-2.7896 1.8397-4.8079 0.125-7.3125-1.0267-0.76129-1.9086-1.0781-2.7188-1.0312zm15.75 0.1875c-0.59724 0.063477-1.0854 0.49689-1.6562 1.0625-0.74357 1.1246-0.52712 1.9191 0 3 1.219 0.72897 1.9607 0.18319 2.875-0.71875 0.74357-1.1246 0.52712-1.9191 0-3-0.45786-0.2719-0.86041-0.38184-1.2188-0.34375zm-0.1562 0.25c0.42153 0.011299 0.82852 0.2431 1.0312 0.3125 0.50273 0.68964 0.094727 1.846-0.125 2.5625-0.3619 0.72736-1.4388 0.68732-1.875 0.75-0.50136-0.6912-0.34604-2.0023-0.125-2.7188 0.24168-0.72905 0.67222-0.91755 1.0938-0.90625zm-15.688 0.125c0.72151-0.036232 1.4852 0.17022 2.2812 0.65625 1.8458 2.1308 1.2112 4.6413 0 6.9062-1.4944 1.9448-3.3811 2.6517-5.5 1.3438-1.8392-2.1361-1.2174-4.6407 0-6.9062 0.93109-1.2213 2.0162-1.9396 3.2187-2zm-17.094 0.875l0.1875 0.375c-0.72562 0.16522-1.4685 0.30311-2.1875 0.46875l-0.2188-0.5312 2.2188-0.3125zm2.1875 0.3125c0.55872 0.64296 1.2786 1.0884 2.1562 1.3438-2.3788 0.48053-4.747 0.99463-7.0938 1.5312 0.040031-0.56876 0.06694-1.1313 0.03125-1.6875 1.6308-0.39353 3.197-0.78262 4.9062-1.1875zm-5.4688 1.3125c0.029327 0.57203 0.019699 1.1525-0.031242 1.7188-0.50066 0.11529-1.0004 0.22677-1.5 0.34375 0.068748-0.57968 0.12374-1.1524 0.125-1.7188 0.46043-0.11166 0.94072-0.23124 1.4062-0.34375zm10.844 0c0.34687 0.2384 0.69743 0.4713 1.0625 0.6875l2.2812 4.5938c0.20136 0.88049 0.55666 1.6176 1.0625 2.1875l-2.8438 0.5-3.4063-7.6875c0.35038 0.023285 0.71503 0.022469 1.0938 0 0.26559-0.079262 0.50493-0.18382 0.75-0.28125zm9.25 0.125c-0.59724 0.063477-1.0854 0.49689-1.6562 1.0625-0.74359 1.1246-0.52713 1.9191 0 3 1.219 0.72897 1.9607 0.18319 2.875-0.71875 0.74358-1.1246 0.52713-1.9191 0-3-0.45785-0.2719-0.8604-0.38184-1.2188-0.34375zm-0.1562 0.25c0.42154 0.011299 0.82852 0.2431 1.0312 0.3125 0.50274 0.68964 0.094727 1.846-0.125 2.5625-0.3619 0.72736-1.4388 0.68732-1.875 0.75-0.50138-0.6912-0.34605-2.0023-0.125-2.7188 0.24167-0.72905 0.67221-0.91755 1.0937-0.90625zm-11.469 0.0312l3.1875 7.6875-2.5625 0.4688-3.5938-7.4688c0.9882-0.23451 1.9786-0.45301 2.9688-0.6875zm-10.375 0.0625c0.001434 0.55021-0.025909 1.1124-0.093758 1.6562-0.002472 0.019867 0.002586 0.042618 0 0.0625-4.3051 1.0126-8.5919 2.0578-12.875 3.0938 0.46903-0.47559 1.0465-1.2099 1.6562-2.0625 3.6897-0.88998 7.4454-1.8112 11.312-2.75zm-5.5 0.1562l0.25 0.5625c-0.78279 0.18364-1.5685 0.38-2.3438 0.5625l-0.375-0.9062 2.4688-0.2188zm37.531 0.1562c0.022461 1.6809 0.5293 2.9386 1.375 3.8125l-1.0625 0.1875-1.5625-3.7812c0.41135-0.072021 0.80718-0.13617 1.25-0.21875zm-1.9688 0.3438l1.5625 3.7812-1.6875 0.3125-1.8438-3.8125c0.67044-0.077995 1.3308-0.1771 1.9688-0.28125zm-15.375 0.0312c0.50231 0.26624 1.0028 0.51787 1.5312 0.75-0.13586 0.55404-0.22881 1.1147-0.28125 1.6875l-1.25-2.4375zm-8.0938 0.125l3.625 7.4062-2.8438 0.5-3.0938-7.3438c0.7713-0.18277 1.541-0.37941 2.3125-0.5625zm20.906 0.3438l1.7812 3.7188-3.125 0.5312-0.0938-0.2188c0.74902-1.1945 1.2431-2.5746 1.4375-4.0312zm-23.531 0.2812l2.8125 7.4062c-2.4913 0.47699-4.9775 0.84219-6.9062 1.1875l-0.5312-1.0312c2.5885-2.5407 2.6657-3.9977 3.0625-7.1875 0.52097-0.12312 1.0417-0.25164 1.5625-0.375zm-2.1562 0.5c-0.31361 2.6201-0.43502 4.1736-2.6562 6.6562l-0.7812-1.5625c0.98528-1.5761 1.5944-3.1406 1.875-4.7188 0.5209-0.12276 1.0415-0.25195 1.5625-0.375zm-16.156 0.2188l0.3125 0.625c-0.80332 0.18852-1.6307 0.37502-2.4375 0.5625l-0.4375-1.0312 2.5625-0.1562zm14.125 0.2812c-0.26501 1.3355-0.80466 2.6891-1.6562 4.0938l-1.625-3.3438c1.0926-0.25527 2.1885-0.49265 3.2812-0.75zm-22.625 0.5625l2.25 0.0312 0.5625 1.125c-0.71322 0.16215-1.4037 0.33879-2.125 0.5l-0.6875-1.6562zm18.812 0.3125l1.7812 3.7812c-0.55566 0.83908-1.2054 1.6973-2 2.5625l-2.2812-5.75c0.83415-0.19313 1.6659-0.39916 2.5-0.59375zm-3.2188 0.75l2.5312 6.0938c-0.27013 0.27904-0.54725 0.56192-0.84375 0.84375l-3.6562 0.6562-3.125-6.4062c1.7007-0.38514 3.3945-0.79501 5.0938-1.1875zm-19.281 0.125l0.625 1.2812c-0.69715 0.15033-1.3848 0.31939-2.0938 0.46875l-0.6875-1.625 2.1562-0.125zm60.5 0.4375c0.50319 0.35864 1.0871 0.6278 1.75 0.78125l-11.719 2.0938c0.53563-0.38085 0.99025-0.8484 1.4062-1.3438l8.5625-1.5312zm-42.156 0.3438l-2.7812 0.7188 2.2812 5.4062 2.7188-0.5625-2.2188-5.5625zm50.031 0.0938l0.2812 0.6562-2.7188 0.5625-0.2812-0.7188 2.7188-0.5zm-54.688 0.2812l3.0312 6.4062-3 0.5312-2.5938-6.3438c0.85615-0.19114 1.707-0.40044 2.5625-0.59375zm4.2188 0.375l1.9062 4.4375-1.5312 0.5-2.0312-4.5938 1.6562-0.3438zm45.062 0.3125l0.3125 0.5312-3.125 0.75-0.3125-0.75 3.125-0.5312zm-52.531 0.0625l2.5938 6.3125-1.5938 0.2812-3.0312-6.1562c0.67611-0.14881 1.3556-0.28719 2.0312-0.4375zm19.844 0.4375l-2.7812 0.7188 1.1562 2.1562 2.7188-0.5625-1.0938-2.3125zm-22.531 0.1562l3.0312 6.125-2.8438 0.5-2.5312-6.125c0.7808-0.16888 1.5638-0.32895 2.3438-0.5zm49.188 0.4062l0.125 0.2812-3.2812 0.6875-0.1562-0.4062 3.3125-0.5625zm-27.094 0.1875l0.7812 1.1875-1.5312 0.5-0.9062-1.3438 1.6562-0.3438zm-25.031 0.0312l2.375 6.125-1.75 0.3125-3.0312-5.9375c0.80191-0.17014 1.6053-0.3274 2.4062-0.5zm19.719 0.3125l0.7188 1.4688c-0.42052 0.4378-0.9094 0.89873-1.4688 1.4062l-1.0625 0.1875-0.25-0.5625c0.79852-0.84413 1.495-1.6738 2.0625-2.5zm19.125 0.0312l1.7188 0.875-25.938 4.4375 1.9375-1.5625 22.281-3.75zm-41.781 0.2812l2.9375 5.9062-2.75 0.5-2.5-5.9375c0.76954-0.16001 1.544-0.3063 2.3125-0.46875zm49.219 0.1562l0.3125 0.6562-3.375 0.7812-0.3437-0.8125 3.4062-0.625zm-6.2812 1.125l0.25 0.5-2.9375 0.6875-0.3125-0.6875 3-0.5zm-19.406 0.25l0.3438 0.6875-1.4062 0.25c0.39902-0.33753 0.73645-0.63574 1.0625-0.9375zm12.406 0.9688l0.2812 0.5625-3.0312 0.5-0.2188-0.5312 2.9688-0.5312zm-15.812 0.1875l0.0625 0.1875-0.3125 0.0625c0.087059-0.085136 0.16542-0.16513 0.25-0.25zm4.7812 1.75l0.2812 0.5938-3.125 0.7812-0.3125-0.8125 3.1562-0.5625zm-9 1.5938l0.3438 0.7188-3.125 0.6875-0.3438-0.875 3.125-0.5312zm-5.9062 1.0312l0.25 0.5-2.9688 0.7812-0.3125-0.75 3.0313-0.5312zm-5.9688 1.0312l0.4688 0.9688-2.875 0.7812-0.5312-1.2188 2.9375-0.5312z" fill-rule="evenodd"/> -->
				<path style="fill-rule:evenodd;fill:#990F02;fill-opacity:1;stroke-width:2;stroke-linecap:butt;stroke-linejoin:miter;stroke:rgb(0%,0%,0%);stroke-opacity:1;stroke-miterlimit:4;" d="M 86.198893 177.955878 C 86.198893 177.955878 90.95625 168.777422 93.663281 164.906748 C 96.295117 161.151243 99.99974 156.123873 103.473763 153.129483 C 109.82526 147.63643 118.527865 140.591102 125.059831 135.318372 C 128.11276 132.854761 131.466471 127.952574 135.316471 127.221503 C 136.975781 126.901033 139.141406 128.217964 140.715495 128.838874 C 143.071615 129.775246 145.778646 133.080091 148.270117 132.619416 C 153.453581 131.658007 155.724479 122.769977 160.95306 122.093986 C 163.625 121.748479 165.60013 122.830065 167.700586 124.522546 C 168.768359 125.383809 169.650651 127.276583 170.938997 127.757288 C 173.219922 128.613543 176.698958 126.535497 179.035026 127.221503 C 182.704557 128.293074 186.619727 132.043572 189.291667 134.77758 C 190.670247 136.18965 191.341992 139.209076 193.066471 140.175493 C 195.477734 141.51746 200.230078 138.868577 202.245312 140.711278 C 209.845052 147.676489 215.173893 153.750393 218.43737 163.920302 C 219.780859 168.116453 222.753581 177.955878 222.753581 177.955878 Z M 86.198893 177.955878 " transform="matrix(0.74,0,0,0.780105,0,0)"/>
				<path style=" stroke:none;fill-rule:evenodd;fill:rgb(99.607843%,100%,100%);fill-opacity:0.596078;" d="M 103.589844 144.394531 L 84.867188 117.058594 L 96.023438 107.871094 L 116.972656 140.375 Z M 103.589844 144.394531 "/>
				<path style="fill-rule:evenodd;fill:rgb(0%,0%,0%);fill-opacity:1;stroke-width:4;stroke-linecap:butt;stroke-linejoin:miter;stroke:rgb(0%,0%,0%);stroke-opacity:1;stroke-miterlimit:4;" d="M 2.000195 175.256921 L 228.688997 175.256921 L 228.688997 189.292497 L 2.000195 189.292497 Z M 2.000195 175.256921 " transform="matrix(0.72,0,0,0.780105,0,0)"/>
				<path style="fill-rule:evenodd;fill:rgb(0%,0%,0%);fill-opacity:1;stroke-width:4;stroke-linecap:butt;stroke-linejoin:miter;stroke:rgb(0%,0%,0%);stroke-opacity:1;stroke-miterlimit:4;" d="M 23.04987 19.809039 L 85.121094 19.809039 L 85.121094 35.461986 L 23.04987 35.461986 Z M 23.04987 19.809039 " transform="matrix(0.779221,0,0,0.780105,0,0)"/>
				<path style="fill-rule:evenodd;fill:rgb(0%,0%,0%);fill-opacity:1;stroke-width:4;stroke-linecap:butt;stroke-linejoin:miter;stroke:rgb(0%,0%,0%);stroke-opacity:1;stroke-miterlimit:4;" d="M 18.733659 68.390258 L 91.05651 68.390258 L 91.05651 73.247378 L 18.733659 73.247378 Z M 18.733659 68.390258 " transform="matrix(0.779221,0,0,0.780105,0,0)"/>
				<path style="fill:none;stroke-width:4;stroke-linecap:butt;stroke-linejoin:miter;stroke:rgb(0%,0%,0%);stroke-opacity:1;stroke-miterlimit:4;" d="M 29.526693 101.854315 L 78.644271 101.854315 " transform="matrix(0.779221,0,0,0.780105,0,0)"/>
				<path style="fill:none;stroke-width:4;stroke-linecap:butt;stroke-linejoin:miter;stroke:rgb(0%,0%,0%);stroke-opacity:1;stroke-miterlimit:4;" d="M 29.526693 137.476536 L 78.644271 137.476536 " transform="matrix(0.779221,0,0,0.780105,0,0)"/>
				<path style="fill:none;stroke-width:4;stroke-linecap:butt;stroke-linejoin:miter;stroke:rgb(0%,0%,0%);stroke-opacity:1;stroke-miterlimit:4;" d="M 30.128255 175.096686 L 77.085221 138.397887 " transform="matrix(0.779221,0,0,0.780105,0,0)"/>
				<path style="fill:none;stroke-width:4;stroke-linecap:butt;stroke-linejoin:miter;stroke:rgb(0%,0%,0%);stroke-opacity:1;stroke-miterlimit:4;" d="M 32.223698 138.012322 L 79.180664 101.313522 " transform="matrix(0.779221,0,0,0.780105,0,0)"/>
				<path style="fill:none;stroke-width:4;stroke-linecap:butt;stroke-linejoin:miter;stroke:rgb(0%,0%,0%);stroke-opacity:1;stroke-miterlimit:4;" d="M 30.704753 100.707634 L 81.441536 71.019112 " transform="matrix(0.779221,0,0,0.780105,0,0)"/>
				<path style="fill:none;stroke-width:4;stroke-linecap:butt;stroke-linejoin:miter;stroke:rgb(0%,0%,0%);stroke-opacity:1;stroke-miterlimit:4;" d="M 31.145898 180.114042 L 31.145898 27.905909 " transform="matrix(0.779221,0,0,0.780105,0,0)"/>
				<path style="fill:none;stroke-width:4;stroke-linecap:butt;stroke-linejoin:miter;stroke:rgb(0%,0%,0%);stroke-opacity:1;stroke-miterlimit:4;" d="M 77.025065 180.114042 L 77.025065 27.905909 " transform="matrix(0.779221,0,0,0.780105,0,0)"/>
				<path style="fill:none;stroke-width:4;stroke-linecap:butt;stroke-linejoin:miter;stroke:rgb(0%,0%,0%);stroke-opacity:1;stroke-miterlimit:4;" d="M 35.462109 26.288538 L 35.462109 1.997929 " transform="matrix(0.779221,0,0,0.780105,0,0)"/>
				<path style="fill-rule:evenodd;fill:rgb(0%,0%,0%);fill-opacity:1;stroke-width:2;stroke-linecap:butt;stroke-linejoin:miter;stroke:rgb(0%,0%,0%);stroke-opacity:1;stroke-miterlimit:4;" d="M 36.447883 44.874311 C 36.447883 46.351476 35.337499 47.548231 33.966438 47.548231 C 32.597883 47.548231 31.484992 46.351476 31.487499 44.874311 C 31.484992 43.399649 32.597883 42.202894 33.966438 42.202894 C 35.337499 42.202894 36.447883 43.399649 36.447883 44.874311 Z M 36.447883 44.874311 " transform="matrix(1.558442,0,0,1.560209,-11.797989,-15.235979)"/>
				<path style="fill:none;stroke-width:2;stroke-linecap:butt;stroke-linejoin:miter;stroke:rgb(0%,0%,0%);stroke-opacity:1;stroke-miterlimit:4;" d="M 46.561141 46.686658 C 46.561141 52.853197 41.56316 57.850523 35.39965 57.850523 C 29.233635 57.850523 24.235653 52.853197 24.235653 46.686658 C 24.235653 40.522621 29.233635 35.525295 35.39965 35.525295 C 41.56316 35.525295 46.561141 40.522621 46.561141 46.686658 Z M 46.561141 46.686658 " transform="matrix(1.558442,0,0,1.560209,-13.582349,-16.426901)"/>
				<path style="fill:none;stroke-width:4;stroke-linecap:butt;stroke-linejoin:miter;stroke:rgb(0%,0%,0%);stroke-opacity:1;stroke-miterlimit:4;" d="M 86.569857 112.775325 L 86.569857 79.952207 " transform="matrix(0.779221,0,0,0.780105,0,0)"/>
				<path style="fill:none;stroke-width:4;stroke-linecap:butt;stroke-linejoin:miter;stroke:rgb(0%,0%,0%);stroke-opacity:1;stroke-miterlimit:4;" d="M 102.791992 138.91865 L 102.791992 106.095533 " transform="matrix(0.779221,0,0,0.780105,0,0)"/>
				<path style="fill:none;stroke-width:4;stroke-linecap:butt;stroke-linejoin:miter;stroke:rgb(0%,0%,0%);stroke-opacity:1;stroke-miterlimit:4;" d="M 87.141341 115.634517 L 102.791992 104.187736 " transform="matrix(0.779221,0,0,0.780105,0,0)"/>
				<path style="fill:none;stroke-width:4;stroke-linecap:butt;stroke-linejoin:miter;stroke:rgb(0%,0%,0%);stroke-opacity:1;stroke-miterlimit:4;" d="M 103.553971 141.587563 L 119.199609 130.140782 " transform="matrix(0.779221,0,0,0.780105,0,0)"/>
				<path style="fill:none;stroke-width:4;stroke-linecap:butt;stroke-linejoin:miter;stroke:rgb(0%,0%,0%);stroke-opacity:1;stroke-miterlimit:4;" d="M 124.924479 176.318477 L 66.151823 81.669725 " transform="matrix(0.779221,0,0,0.780105,0,0)"/>
				<path style="fill:none;stroke-width:4.340451;stroke-linecap:butt;stroke-linejoin:miter;stroke:rgb(0%,0%,0%);stroke-opacity:1;stroke-miterlimit:4;" d="M 146.129557 175.387112 L 82.353906 72.676542 " transform="matrix(0.779221,0,0,0.780105,0,0)"/>
				<path style="fill:none;stroke-width:4;stroke-linecap:butt;stroke-linejoin:miter;stroke:rgb(0%,0%,0%);stroke-opacity:1;stroke-miterlimit:4;" d="M 118.43763 163.725016 L 118.43763 130.901898 " transform="matrix(0.779221,0,0,0.780105,0,0)"/>
				<path style="fill:none;stroke-width:4;stroke-linecap:butt;stroke-linejoin:miter;stroke:rgb(0%,0%,0%);stroke-opacity:1;stroke-miterlimit:4;" d="M 132.55931 186.623584 L 132.55931 153.800467 " transform="matrix(0.779221,0,0,0.780105,0,0)"/>
				<path style="fill:none;stroke-width:4;stroke-linecap:butt;stroke-linejoin:miter;stroke:rgb(0%,0%,0%);stroke-opacity:1;stroke-miterlimit:4;" d="M 118.056641 165.632812 L 133.702279 154.181025 " transform="matrix(0.779221,0,0,0.780105,0,0)"/>
			</g>

			<g>
				<g>
					<g>
						<g>
							<g>
								<path class="st8" d="M942.6,142.5l-7.1,62.5l-56.9,4H878l-0.1-1.5l-7-61.1l-0.9-28.3c-0.3-3.6,2-6.9,5.5-7.8l28.1-7.7
									l17.8,2.1l11.5,2.6L942.6,142.5z"/>
							</g>
						</g>
					</g>
				</g>
			</g>
			<g>
				<g>
					
						<rect x="897.2" y="110.9" transform="matrix(0.9993 -3.846490e-02 3.846490e-02 0.9993 -5.4442 34.6411)" class="st26" width="0.6" height="95.8"/>
				</g>
			</g>
			<g>
				<g>
					
						<rect x="915.3" y="107.9" transform="matrix(0.9996 -2.766469e-02 2.766469e-02 0.9996 -4.0012 25.3896)" class="st26" width="0.6" height="98.8"/>
				</g>
			</g>
			
			
			
			<g>
				<g>
					<g>
						<g>
							<g>
								<g>
									<polygon class="st5" points="875.9,240.4 874.6,430.3 902.8,432.8 908.8,245.2 881.7,231.4 									"/>
								</g>
							</g>
						</g>
					</g>
				</g>
			</g>
			<g>
				<g>
					<g>
						<g>
							<g>
								<path class="st5" d="M938.7,250.4c-0.3,2.2-15.9,4.7-32.7,4c-16.8-0.6-30.9-2-30.1-14.1c1.5-24.6,0-31.6,9.6-28.7
									c10.7,3.2,50.3-3.7,50.3-3.7S939.2,246.3,938.7,250.4z"/>
							</g>
						</g>
					</g>
				</g>
				<g>
					<g>
						<path class="st6" d="M908.2,223.8c-1.2,0-2.3-1-2.3-2.2l-0.7-13.8h0.6l0.7,13.8c0,0.9,0.8,1.7,1.8,1.6l2.8-0.1v0.6
							L908.2,223.8C908.3,223.8,908.3,223.8,908.2,223.8z"/>
					</g>
				</g>
				<g>
					<g>
						<path class="st6" d="M911.3,229.8c-0.2,0-0.3-0.1-0.3-0.3l-0.6-17.8c0-0.2,0.1-0.3,0.3-0.3s0.3,0.1,0.3,0.3l0.6,17.8
							C911.6,229.6,911.5,229.8,911.3,229.8L911.3,229.8z"/>
					</g>
				</g>
			</g>
			<g>
				<g>
					<g>
						<g>
							<g>
								<path class="st1" d="M894.5,82c1.6,8.3-0.3,16.1-3.6,21.9c-1.9,3.4,0.8,7.6,4.7,7l24.2-3.6c0,0-13-15-8.1-31.4l-18,2.7
									C893.8,78.6,894,79.6,894.5,82z"/>
							</g>
						</g>
					</g>
				</g>
			</g>
			<g>
				<g>
					<g>
						<g>
							<g>
								<path class="st31" d="M893.7,84.3c0,0,11.1,6.2,15,3.3l2.1-1.9c0.2,2.5-4.1,6.7-7.3,6.6C900.1,92.1,895.2,88.5,893.7,84.3z"
									/>
							</g>
						</g>
					</g>
				</g>
			</g>
			<g>
				<g>
					<g>
						<g>
							<g>
								<path class="st32" d="M897.4,86.3C886,84.7,882,70.9,880.9,59.1c-0.3-3.1-0.4-6.1-0.4-8.7c0-0.1,0-0.2,0-0.3
									c0.2-12,7.5-17.9,18.6-18.1c15.3-0.2,22,6.7,21.8,18.8C920.8,63,926.2,90.2,897.4,86.3z"/>
							</g>
						</g>
					</g>
				</g>
			</g>
			<g>
				<g>
					<g>
						<g>
							<g>
								<path class="st1" d="M919.5,65.2c-0.1,12.6-7.3,25.2-16.3,25.1c-9.1-0.1-19-14.6-18.9-27.2s6.4-28.5,15.5-28.4
									C908.9,34.7,919.7,52.6,919.5,65.2z"/>
							</g>
						</g>
					</g>
				</g>
			</g>
			<g>
				<g>
					<g>
						<g>
							<g>
								<path class="st41" d="M923.5,105.2l-4.9,7.5l-14-2.9l-12.8,4.2l-7.3-6.2l1.5-1.2l0.5-0.4l0.9-0.7l0.9-0.7l3.8-3.1
									c0,0,17,3.6,22.7-2l5.6,3.6l0.9,0.7l0,0l0.5,0.4L923.5,105.2z"/>
							</g>
						</g>
					</g>
				</g>
			</g>
			<g>
				<g>
					<g>
						<g>
							<g>
								<path class="st31" d="M903.6,78c-0.1,0-0.1-0.1-0.2-0.1c-0.1-0.1-0.1-0.3,0.1-0.4c0.7-0.4,1.4-0.8,2.1-1.2
									c0.6-0.3,1.3-0.7,1.5-0.9c-3.1-1.8-4.5-5-3.8-8.6c0-0.2,0.2-0.3,0.3-0.2c0.2,0,0.3,0.2,0.2,0.3c-0.7,3.4,0.6,6.4,3.5,8
									c0.3,0.1,0.3,0.3,0.3,0.4c0,0.4-0.6,0.7-1.8,1.4c-0.6,0.3-1.4,0.7-2,1.2C903.8,78,903.7,78,903.6,78z"/>
							</g>
						</g>
					</g>
				</g>
			</g>
			<g>
				<g>
					<g>
						<g>
							<g>
								<g>
									<path class="st26" d="M906.9,123.9c0,1.6-0.6,3-1.3,3s-1.3-1.3-1.3-3c0-1.6,0.6-3,1.3-3
										C906.3,120.9,906.9,122.3,906.9,123.9z"/>
								</g>
							</g>
						</g>
					</g>
				</g>
				<g>
					<g>
						<g>
							<g>
								<g>
									<path class="st26" d="M907.6,140.5c0,1.6-0.6,3-1.3,3s-1.3-1.3-1.3-3c0-1.6,0.6-3,1.3-3S907.6,138.9,907.6,140.5z"/>
								</g>
							</g>
						</g>
					</g>
				</g>
				<g>
					<g>
						<g>
							<g>
								<g>
									<path class="st33" d="M908.2,157.1c0,1.6-0.6,3-1.3,3s-1.3-1.3-1.3-3c0-1.6,0.6-3,1.3-3
										C907.6,154.1,908.2,155.4,908.2,157.1z"/>
								</g>
							</g>
						</g>
					</g>
				</g>
				<g>
					<g>
						<g>
							<g>
								<g>
									<path class="st33" d="M908.9,173.7c0,1.6-0.6,3-1.3,3s-1.3-1.3-1.3-3c0-1.6,0.6-3,1.3-3C908.3,170.7,908.9,172,908.9,173.7
										z"/>
								</g>
							</g>
						</g>
					</g>
				</g>
				<g>
					<g>
						<g>
							<g>
								<g>
									<path class="st26" d="M909.5,190.4c0,1.6-0.6,3-1.3,3s-1.3-1.3-1.3-3c0-1.6,0.6-3,1.3-3C909,187.4,909.5,188.7,909.5,190.4
										z"/>
								</g>
							</g>
						</g>
					</g>
				</g>
			</g>
			<g>
				<g>
					<g>
						<g>
							<g>
								<g>
									<path class="st1" d="M889.6,68.2c3.3,3.7,4.8,7.7,3.3,9.1c-1.5,1.3-5.4-0.6-8.7-4.2c-3.3-3.7-4.8-7.7-3.3-9.1
										C882.4,62.6,886.3,64.5,889.6,68.2z"/>
								</g>
							</g>
						</g>
					</g>
				</g>
				<g>
					<g>
						<g>
							<g>
								<g>
									<path class="st31" d="M881.5,66.8c-0.1,0-0.2-0.1-0.2-0.2c-0.2-0.7-0.2-1.2,0.1-1.6c0.5-0.6,1.5-0.6,1.6-0.6
										s0.3,0.1,0.3,0.3c0,0.2-0.1,0.3-0.3,0.3s-0.8,0-1.1,0.4c-0.2,0.2-0.2,0.6,0,1.1c0,0.2,0,0.3-0.2,0.4
										C881.6,66.8,881.6,66.8,881.5,66.8z"/>
								</g>
							</g>
						</g>
					</g>
				</g>
				<g>
					<g>
						<g>
							<g>
								<g>
									<path class="st31" d="M886,72.6L886,72.6c-1.9-1-3.9-4.1-4-4.3c-0.1-0.1,0-0.3,0.1-0.4s0.3,0,0.4,0.1c0,0,2,3.2,3.7,4
										c0.1,0.1,0.2,0.2,0.1,0.4C886.3,72.6,886.1,72.7,886,72.6z"/>
								</g>
							</g>
						</g>
					</g>
				</g>
			</g>
			<g>
				<g>
					<g>
						<g>
							<g>
								<g>
									<path class="st32" d="M917.7,59.6c-0.2-0.8-6.6-2.4-9.5-1.1c-3,1.4-2.7,3.7-2.1,3.2c0.6-0.4,3.7-1.6,5.5-1.6
										C913.3,60.1,917.8,60.1,917.7,59.6z"/>
								</g>
							</g>
						</g>
					</g>
				</g>
			</g>
			<g>
				<g>
					<g>
						<g>
							<g>
								<g>
									<path class="st32" d="M886.2,64c0-0.8,5.6-4.2,8.8-3.7s3.6,2.8,2.9,2.5c-0.7-0.2-4-0.5-5.7,0
										C890.6,63.3,886.2,64.5,886.2,64z"/>
								</g>
							</g>
						</g>
					</g>
				</g>
			</g>
			<g>
				<g>
					<g>
						<g>
							<g>
								<g>
									<g>
										<polygon class="st32" points="914.4,64.4 909.1,65 909.3,66.3 915,65.2 										"/>
									</g>
								</g>
							</g>
						</g>
					</g>
				</g>
				<g>
					<g>
						<g>
							<g>
								<g>
									<g>
										<path class="st32" d="M910.7,67.2c0.2,1.2,0.9,2.1,1.7,2c0.7-0.1,1.1-1.2,1-2.4c-0.2-1.2-0.9-2.1-1.7-2
											C911,64.9,910.5,65.9,910.7,67.2z"/>
									</g>
								</g>
							</g>
						</g>
					</g>
				</g>
			</g>
			<g>
				<g>
					<g>
						<g>
							<g>
								<g>
									<g>
										<polygon class="st32" points="891.1,67.1 896.2,66 896.5,67.2 890.8,68.1 										"/>
									</g>
								</g>
							</g>
						</g>
					</g>
				</g>
				<g>
					<g>
						<g>
							<g>
								<g>
									<g>
										<path class="st32" d="M895.4,68.7c0.1,1.2-0.4,2.3-1.1,2.3c-0.7,0.1-1.4-0.9-1.5-2.1s0.4-2.3,1.1-2.3
											C894.6,66.5,895.3,67.5,895.4,68.7z"/>
									</g>
								</g>
							</g>
						</g>
					</g>
				</g>
			</g>
			<g>
				<g>
					<g>
						<g>
							<g>
								<path class="st31" d="M901.6,81.6c-1.3-0.3-2.2-0.6-2.3-0.7s-0.2-0.2-0.2-0.4c0.1-0.1,0.2-0.2,0.4-0.2c0,0,2.5,1,4.8,0.8
									c2.9-0.3,4.7-1.8,4.7-1.8c0.1-0.1,0.3-0.1,0.4,0c0.1,0.1,0.1,0.3,0,0.4s-1.9,1.7-5.1,2C903.4,81.9,902.5,81.8,901.6,81.6z"
									/>
							</g>
						</g>
					</g>
				</g>
			</g>
			<g>
				<g>
					<g>
						<g>
							<g>
								<path class="st34" d="M886.1,50.4l-1.3,6.6l0,0c-1.9,1-4.2-0.3-4.3-2.4c-0.1-1.5-0.1-2.9-0.1-4.2c0.1,0,0.1,0,0.2-0.1
									C881.5,50.9,882.8,49.3,886.1,50.4z"/>
							</g>
						</g>
					</g>
				</g>
			</g>
			<g>
				<g>
					<g>
						<g>
							<g>
								<path class="st32" d="M919,62.9l-3.5-10.2v-0.1v-0.1c0,0-0.2,0.1-0.6,0.2c-0.5,0.2-1.4,0.4-2.6,0.8l0,0
									c-7.2,2.1-24.7,6.5-29.6,2.3c-3.9-3.4-7.9-11.7,0.4-18.1c14.3-11.2,27.9-2.2,33.4,5.8s4,8.6,4.4,11.8
									C921.4,58.4,919,62.9,919,62.9z"/>
							</g>
						</g>
					</g>
				</g>
			</g>
			
			
			<g class="st7">
				<g>
					<g>
						<g>
							
								<rect x="976.8" y="225.3" transform="matrix(0.7151 -0.699 0.699 0.7151 117.7229 748.7574)" class="st8" width="1.3" height="9.4"/>
						</g>
					</g>
				</g>
				<g>
					<g>
						<g>
							
								<rect x="972.6" y="229.3" transform="matrix(0.7244 -0.6893 0.6893 0.7244 110.7849 737.0927)" class="st8" width="9.4" height="1.3"/>
						</g>
					</g>
				</g>
			</g>
			<g class="st7">
				<g>
					<g>
						<g>
							
								<rect x="839.2" y="92.9" transform="matrix(0.7151 -0.699 0.699 0.7151 171.0239 614.8525)" class="st8" width="1.3" height="9.4"/>
						</g>
					</g>
				</g>
				<g>
					<g>
						<g>
							
								<rect x="835.1" y="97.1" transform="matrix(0.7244 -0.6893 0.6893 0.7244 164.0625 605.8253)" class="st8" width="9.4" height="1.3"/>
						</g>
					</g>
				</g>
			</g>
			<g class="st7">
				<g>
					<g>
						<g>
							
								<rect x="407.7" y="225.7" transform="matrix(0.7151 -0.699 0.699 0.7151 -44.691 351.0466)" class="st8" width="1.3" height="9.4"/>
						</g>
					</g>
				</g>
				<g>
					<g>
						<g>
							
								<rect x="403.6" y="229.8" transform="matrix(0.7244 -0.6893 0.6893 0.7244 -46.3306 344.9565)" class="st8" width="9.4" height="1.3"/>
						</g>
					</g>
				</g>
			</g>
			<g class="st7">
				<g>
					<g>
						<g>
							
								<rect x="839.4" y="304.2" transform="matrix(0.8116 -0.5843 0.5843 0.8116 -19.0473 550.6115)" class="st8" width="9.4" height="1.3"/>
						</g>
					</g>
				</g>
				<g>
					<g>
						<g>
							
								<rect x="843.4" y="300.1" transform="matrix(0.8193 -0.5733 0.5733 0.8193 -22.2545 538.9558)" class="st8" width="1.3" height="9.4"/>
						</g>
					</g>
				</g>
			</g>
			<g>
				<g>
					<g>
						<path class="st8" d="M443.9,144c-0.1,0-0.2,0-0.3-0.1l-6.8-4.4c-0.3-0.2-0.4-0.6-0.2-0.9c0.2-0.3,0.6-0.4,0.9-0.2l6.8,4.4
							c0.3,0.2,0.4,0.6,0.2,0.9C444.3,143.9,444.1,144,443.9,144z"/>
					</g>
				</g>
				<g>
					<g>
						<path class="st8" d="M447.5,140.9c-0.3,0-0.5-0.2-0.6-0.4l-2.2-7.3c-0.1-0.3,0.1-0.7,0.4-0.8s0.7,0.1,0.8,0.4l2.2,7.3
							c0.1,0.3-0.1,0.7-0.4,0.8C447.6,140.9,447.6,140.9,447.5,140.9z"/>
					</g>
				</g>
				<g>
					<g>
						<path class="st8" d="M453.5,139.7L453.5,139.7c-0.4,0-0.6-0.3-0.6-0.7l0.3-7.6c0-0.3,0.3-0.6,0.7-0.6c0.3,0,0.6,0.3,0.6,0.7
							l-0.3,7.6C454.1,139.4,453.8,139.7,453.5,139.7z"/>
					</g>
				</g>
				<g>
					<g>
						<path class="st8" d="M434.8,149c-0.3,0-0.6-0.3-0.6-0.6s0.3-0.6,0.6-0.6l8-0.1l0,0c0.3,0,0.6,0.3,0.6,0.6s-0.3,0.6-0.6,0.6
							L434.8,149L434.8,149z"/>
					</g>
				</g>
			</g>
			<!-- <g>
				<g>
					<g>
						<path class="st8" d="M783.2,374.6c-0.3,0-0.5-0.2-0.6-0.5l-2.1-7.5c-0.1-0.3,0.1-0.7,0.4-0.8c0.3-0.1,0.7,0.1,0.8,0.4l2.1,7.5
							c0.1,0.3-0.1,0.7-0.4,0.8C783.3,374.6,783.2,374.6,783.2,374.6z"/>
					</g>
				</g>
				<g>
					<g>
						<path class="st8" d="M787.9,374.7c-0.1,0-0.2,0-0.3-0.1c-0.3-0.1-0.5-0.5-0.3-0.8l3.2-6.9c0.1-0.3,0.5-0.4,0.8-0.3
							s0.5,0.5,0.3,0.8l-3.2,6.9C788.4,374.6,788.1,374.7,787.9,374.7z"/>
					</g>
				</g>
				<g>
					<g>
						<path class="st8" d="M793.2,377.7c-0.2,0-0.3-0.1-0.4-0.2c-0.2-0.2-0.3-0.6,0-0.9l5.3-5.5c0.2-0.2,0.6-0.3,0.9,0
							c0.2,0.2,0.3,0.6,0,0.9l-5.3,5.5C793.5,377.7,793.4,377.7,793.2,377.7z"/>
					</g>
				</g>
				<g>
					<g>
						<path class="st8" d="M779,377.5c-0.1,0-0.3-0.1-0.4-0.2l-6-5.3c-0.3-0.2-0.3-0.6-0.1-0.9s0.6-0.3,0.9-0.1l6,5.3
							c0.3,0.2,0.3,0.6,0.1,0.9C779.3,377.4,779.2,377.5,779,377.5z"/>
					</g>
				</g>
			</g> -->
			
			<g>
				<g>
					<g>
						<path class="st8" d="M922,104.2l-4.7,5.8c-0.1,0.1-0.2,0.1-0.3,0.1l-12.3-3.3l-11.8,4.5h-0.1c-0.1,0-0.1,0-0.2-0.1
							c-1.6-1.1-4.6-3.3-6.5-4.7l0.5-0.4c1.7,1.2,4.3,3.1,6.2,4.5l11.7-4.4c0.1,0,0.1,0,0.2,0l12.2,3.2l4.6-5.6L922,104.2z"/>
					</g>
				</g>
			</g>
			<g>
				<g>
					<path class="st6" d="M953.1,435.4c0-0.3-0.8-29.1-2.9-58.3c-3.1-43.2-12.8-119.1-20.1-164.7l0.6-0.1
						c7.3,45.6,17.1,121.6,20.1,164.8c2.1,29.2,2.9,58,2.9,58.3H953.1z"/>
				</g>
			</g>
			<g>
				<g>
					<polygon class="st6" points="880.5,430.8 879.8,430.8 882.8,213.3 883.4,213.3 					"/>
				</g>
			</g>
			<g>
				<g>
					<g>
						<g>
							<g>
								<path class="st25" d="M957.8,439.1l-26.3,0.6v-0.2c-0.1-4.1,1.2-5.2,4.1-7.2c2.1-1.4,4.1-1.9,7.8-2.3c3.8-0.4,5.3,0,8.4,1.2
									C955.1,432.5,957.7,435,957.8,439.1L957.8,439.1z"/>
							</g>
						</g>
					</g>
				</g>
			</g>
			<g>
				<g>
					<g>
						<g>
							<g>
								<g>
									<path class="st37" d="M877.4,216.7c0.8-0.2,58.7-4.4,58.7-4.4l-0.5-8.7l-57.8,4.7L877.4,216.7z"/>
								</g>
							</g>
						</g>
					</g>
				</g>
				<g>
					<g>
						<g>
							<g>
								<g>
									
										<rect x="891.6" y="207.1" transform="matrix(0.998 -6.322763e-02 6.322763e-02 0.998 -11.592 56.8919)" class="st5" width="3" height="9"/>
								</g>
							</g>
						</g>
					</g>
				</g>
				<g>
					<g>
						<g>
							<g>
								<g>
									<polygon class="st5" points="930.7,212.7 927.7,212.9 927.2,204.3 930.2,204.1 									"/>
								</g>
							</g>
						</g>
					</g>
				</g>
				<g>
					<g>
						<g>
							<g>
								<g>
									<polygon class="st5" points="921.8,213.8 918.8,214 918.3,205 921.3,204.8 									"/>
								</g>
							</g>
						</g>
					</g>
				</g>
				<g>
					<g>
						<g>
							<g>
								<g>
									<polygon class="st5" points="886.4,216 883.4,216.9 882.9,208 885.9,207.7 									"/>
								</g>
							</g>
						</g>
					</g>
				</g>
				<g>
					<g>
						<g>
							<g>
								<g>
									<polygon class="st41" points="913.5,214 903.2,214.7 902.6,206.3 913,205.5 									"/>
								</g>
							</g>
						</g>
					</g>
				</g>
			</g>
			<g>
				<g>
					<g>
						<g>
							<g>
								<g>
									<g>
										<g>
											<path class="st1" d="M880.2,227.6c-1.1,0-0.4-8-2-4.6c-0.5,1.1,0.2,6.1-0.3,10.6c-0.1,1.3,0,4.5-0.7,5.2
												c-0.3,0.3-0.6-0.1-0.8-0.2c-0.1,0-0.1,0-0.2,0.1c-0.2,0.3-0.3,0.8-0.4,1.3l0,0c-0.1,0.4-0.3,0.8-0.5,0.9
												c-0.2,0.2-0.6-0.1-0.9-0.2c-0.1-0.1-0.3-0.1-0.4,0c-0.1,0-0.2,0.2-0.3,0.3l0,0c-0.2,0.3-0.4,0.7-0.7,0.7
												c-0.2,0-0.4-0.4-0.6-0.7c-0.1-0.1-0.2-0.2-0.3-0.3c-0.1,0-0.2,0-0.3,0c-0.4,0.1-0.9,0.7-1.1-0.2c-0.9-4.3,0-17.5-3-24.5
												c-1.2-2.9,10.7-8.9,10.7-8.9s1.3,3.4,2.5,10.4C881.2,219.2,883.1,227.6,880.2,227.6z"/>
										</g>
									</g>
								</g>
							</g>
						</g>
					</g>
				</g>
				<g>
					<g>
						<g>
							<g>
								<g>
									<g>
										<g>
											<g>
												<path class="st31" d="M874.4,240.8c-0.1-0.1-0.3-0.1-0.4,0c-0.1,0-0.2,0.2-0.3,0.3c-0.1-2.2-0.2-7.5-0.1-9
													c0-0.2,0.1-0.3,0.3-0.3s0.3,0.2,0.3,0.3C874.2,233.4,874.3,238.4,874.4,240.8z"/>
											</g>
										</g>
									</g>
								</g>
							</g>
						</g>
					</g>
				</g>
				<g>
					<g>
						<g>
							<g>
								<g>
									<g>
										<g>
											<g>
												<path class="st31" d="M876.4,238.6c-0.1,0-0.1,0-0.2,0.1c-0.2,0.3-0.3,0.8-0.4,1.3c0-2.2-0.1-8.8,0-10.3
													c0-0.2,0.2-0.3,0.3-0.3c0.2,0,0.3,0.2,0.3,0.3C876.3,231,876.3,235.8,876.4,238.6z"/>
											</g>
										</g>
									</g>
								</g>
							</g>
						</g>
					</g>
				</g>
				<g>
					<g>
						<g>
							<g>
								<g>
									<g>
										<g>
											<g>
												<path class="st31" d="M872.4,241.1c-0.1-0.1-0.2-0.2-0.3-0.3c-0.1,0-0.2,0-0.3,0c-0.1-4.5-0.2-10.4-0.2-10.7
													c0-0.2,0.1-0.3,0.3-0.4c0.2,0,0.3,0.1,0.3,0.3C872.3,230.4,872.4,238.1,872.4,241.1z"/>
											</g>
										</g>
									</g>
								</g>
							</g>
						</g>
					</g>
				</g>
				<g>
					<g>
						<g>
							<g>
								<g>
									<g>
										<g>
											<path class="st1" d="M875.4,204.8l3.4,5.5l-11.1,5.9l-0.7-0.9C867.1,215.3,869.8,208.9,875.4,204.8z"/>
										</g>
									</g>
								</g>
							</g>
						</g>
					</g>
				</g>
			</g>
			<g>
				<g>
					<g>
						<g>
							<g>
								<path class="st8" d="M864.7,173.6l16.2,34.5c0,0-3.7,6-5.3,7.5c-4.7,4.4-7.8,3.3-7.8,3.3l-21.2-30.4
									c-3.7-5.4-2.6-8.5-1.7-15c2.7-20.5,10.7-59.3,31-63.4c2.8-0.6,5.9,18.1,5.9,18.1l-16.7,44l-0.3,0.8l-0.1,0.4L864.7,173.6
									L864.7,173.6z"/>
							</g>
						</g>
					</g>
				</g>
			</g>
			<g>
				<g>
					<g>
						<path class="st26" d="M864.7,173.6L864.7,173.6l-5.6,1.3H859c-0.1,0-0.3-0.1-0.3-0.2c0-0.2,0.1-0.3,0.2-0.4l5.8-1.3V173.6z"/>
					</g>
				</g>
			</g>
			<g>
				<g>
					<path class="st26" d="M880.9,208.4c-0.1,0-0.2-0.1-0.3-0.2l-4.1-8.9c-0.1-0.2,0-0.3,0.2-0.4c0.2-0.1,0.3,0,0.4,0.2l4.1,8.9
						c0.1,0.2,0,0.3-0.2,0.4C881,208.4,881,208.4,880.9,208.4z"/>
				</g>
			</g>
			<g>
				<g>
					<path class="st26" d="M871.7,154.7L871.7,154.7c-0.2,0-0.3-0.2-0.3-0.4c3.8-20.9,3.3-29.7,3.3-29.8c0-0.2,0.1-0.3,0.3-0.3
						s0.3,0.1,0.3,0.3c0,0.1,0.5,8.9-3.3,29.9C872,154.6,871.9,154.7,871.7,154.7z"/>
				</g>
			</g>
			<g>
				<g>
					<path class="st26" d="M874.7,134.4c-0.2,0-0.3-0.1-0.3-0.3c0-1.8-1.9-7-1.9-7.1c-0.1-0.2,0-0.3,0.2-0.4s0.3,0,0.4,0.2
						c0.1,0.2,2,5.4,2,7.3C875,134.2,874.8,134.4,874.7,134.4z"/>
				</g>
			</g>
			<g>
				<g>
					<path class="st38" d="M936.6,409.8L936.6,409.8c-0.3-0.1-0.3-0.3-0.2-0.4c4.5-9.5,3.2-45.4,3.1-45.8c0-0.2,0.1-0.3,0.3-0.3
						s0.3,0.1,0.3,0.3c0.1,1.5,1.4,36.4-3.2,46.1C936.8,409.7,936.7,409.8,936.6,409.8z"/>
				</g>
			</g>
			<g>
				<g>
					<path class="st26" d="M924.8,169.9c0,3.7-1.5,6.8-3.4,6.8s-3.4-3-3.4-6.8c0-3.7,1.5-6.8,3.4-6.8
						C923.3,163.1,924.8,166.1,924.8,169.9z"/>
				</g>
			</g>
			<g>
				<g>
					<g>
						<g>
							<polygon class="st31" points="912.3,155.5 918.7,160.6 923.3,161.3 919.4,167.1 913.4,166.2 							"/>
						</g>
					</g>
				</g>
				<g>
					<g>
						<g>
							<path class="st39" d="M915.6,178.9h-11.3c-1,0-1.9-0.9-1.9-1.9v-24.7c0-1,0.9-1.9,1.9-1.9h11.3c1,0,1.9,0.9,1.9,1.9V177
								C917.5,178.1,916.7,178.9,915.6,178.9z"/>
						</g>
					</g>
				</g>
				<g>
					<g>
						<g>
							<path class="st1" d="M923.6,161.2c0,0-5.5,0.8-8.5,2.9c-2.6,1.9-2.8,7.8-0.2,9.2c0.6,0.3,1.2,0.5,1.9,0.7
								c2.8,0.7,5.8,0.2,8.5-1l4.6-2.2L923.6,161.2z"/>
						</g>
					</g>
				</g>
				<g>
					<g>
						<g>
							<path class="st1" d="M916.8,163.2c0,0-14.5,0.9-15,2c-0.4,0.9,6.1,1.6,9.1,1.4c2.9-0.2,5.5-0.2,5.5-0.2L916.8,163.2z"/>
						</g>
					</g>
				</g>
				<g>
					<g>
						<g>
							<path class="st1" d="M915.5,166.8l-6.7,0.4c0,0-4.8-0.1-6.5,0.1c-1.2,0.1-1.2,1-1.1,1.3c0.3,1.3,6.7,0.9,9.7,0.7
								c2.9-0.2,5.5-0.2,5.5-0.2L915.5,166.8z"/>
						</g>
					</g>
				</g>
				<g>
					<g>
						<g>
							<path class="st1" d="M916.2,169.6l-7.6,0.5c0,0-6.2,0-6.5,0c-1.1,0.2-0.9,1.6-0.1,1.8c1.6,0.6,7,0.4,9.5,0.2
								c2.9-0.2,5.6-0.1,5.6-0.1L916.2,169.6z"/>
						</g>
					</g>
				</g>
				<g>
					<g>
						<g>
							<path class="st1" d="M918.7,172.1c0,0-8.4,0.4-12.1,0.9c-1.1,0.1-1.2,0.5-1.2,0.9c0,0.5,1.8,0.7,2.2,0.8
								c2.7,0.1,4,0.1,6.6-0.1c2.9-0.2,5.7-0.2,5.7-0.2L918.7,172.1z"/>
						</g>
					</g>
				</g>
			</g>
			<g>
				<g>
					<g>
						<path class="st8" d="M932.7,107.3c20.8,4,39.5,65.6,34,75.4c-5.6,9.8-44.8-6-44.8-6s1-1.6,1.7-6.8c0.3-2.6,0-8.7,0-8.7
							l25.1,3.4c0,0-8.5-8.1-11.8-18.8C931.6,128.8,924.5,105.8,932.7,107.3z"/>
					</g>
				</g>
			</g>
			<g>
				<g>
					<path class="st26" d="M948.7,165C948.6,165,948.6,165,948.7,165l-25.2-3.1c-0.2,0-0.3-0.2-0.3-0.3c0-0.2,0.2-0.3,0.3-0.3
						l25.1,3.1c0.2,0,0.3,0.2,0.3,0.3C949,164.9,948.8,165,948.7,165z"/>
				</g>
			</g>
			<g>
				<g>
					<path class="st26" d="M937.7,182.5L937.7,182.5l-17.2-6c-0.2-0.1-0.2-0.2-0.2-0.4c0.1-0.2,0.2-0.2,0.4-0.2l17.1,6
						c0.2,0.1,0.2,0.2,0.2,0.4C938,182.4,937.9,182.5,937.7,182.5z"/>
				</g>
			</g>
			<g>
				<g>
					<path class="st26" d="M941.1,154.9c-0.2,0-0.3-0.1-0.3-0.3s-3.4-22-2.8-30.1c0-0.2,0.2-0.3,0.3-0.3c0.2,0,0.3,0.2,0.3,0.3
						c-0.6,8,2.8,29.7,2.8,29.9C941.4,154.7,941.3,154.9,941.1,154.9L941.1,154.9z"/>
				</g>
			</g>
			<g>
				<g>
					<path class="st26" d="M959.2,168.9c-0.1,0-0.1,0-0.2,0c-4.8-2.6-10.4-3.9-10.4-3.9c-0.1,0-0.2-0.2-0.2-0.3s0.1-0.3,0.2-0.3
						c3.6-0.9,4.9-0.8,4.9-0.8c0.2,0,0.3,0.1,0.3,0.3s-0.1,0.3-0.3,0.3l0,0c0,0-0.9,0-3.5,0.5c2,0.5,5.9,1.7,9.3,3.6
						c0.2,0.1,0.2,0.3,0.1,0.4C959.4,168.8,959.3,168.9,959.2,168.9z"/>
				</g>
			</g>
			<g>
				<g>
					<path class="st26" d="M938.6,135.2L938.6,135.2c-0.2,0-0.3-0.2-0.3-0.4s1.1-5.2,1.8-7.1c0.1-0.2,0.2-0.2,0.4-0.2
						c0.2,0.1,0.2,0.2,0.2,0.4c-0.7,1.9-1.7,7-1.7,7C938.9,135.1,938.8,135.2,938.6,135.2z"/>
				</g>
			</g>
			<g>
				<g>
					<path class="st1" d="M901.5,164.1c-0.1,0.9,0.4,1.3,0.4,1.3l6.3-1.1l-5.8-0.8C902.4,163.6,901.5,163.6,901.5,164.1z"/>
				</g>
			</g>
			<g>
				<g>
					<path class="st1" d="M902.4,167.3c-0.5,0-1.5,0.3-1.1,1.3l2.5-1.3C903.8,167.2,902.8,167.2,902.4,167.3z"/>
				</g>
			</g>
			<g>
				<g>
					<g>
						<path class="st26" d="M907.6,155.5L907.6,155.5h-2.3c-0.4,0-0.7-0.1-1-0.4c-0.3-0.3-0.4-0.6-0.4-1v-0.9c0-0.8,0.6-1.4,1.4-1.4
							l0,0h2.3c0.8,0,1.4,0.6,1.4,1.4v0.9C909,154.9,908.3,155.5,907.6,155.5z M907.6,154.9L907.6,154.9c0.4,0,0.8-0.3,0.8-0.7v-0.9
							c0-0.4-0.3-0.8-0.7-0.8h-2.3l0,0c-0.4,0-0.7,0.3-0.7,0.7v0.9c0,0.2,0.1,0.4,0.2,0.5c0.1,0.1,0.3,0.2,0.5,0.2L907.6,154.9z"/>
					</g>
				</g>
				<g>
					<g>
						<path class="st26" d="M908.7,157.3L908.7,157.3h-4.5c-0.2,0-0.3-0.1-0.3-0.3s0.1-0.3,0.3-0.3l0,0h4.5c0.2,0,0.3,0.1,0.3,0.3
							S908.9,157.3,908.7,157.3z"/>
					</g>
				</g>
			</g>
			<g>
				<g>
					<g>
						<g>
							<g>
								<g>
									<path class="st1" d="M921.1,70c-1.8,4.6-4.8,7.7-6.7,7s-1.9-5.1-0.1-9.7c1.8-4.6,4.8-7.7,6.7-7
										C922.9,61.1,922.9,65.4,921.1,70z"/>
								</g>
							</g>
						</g>
					</g>
				</g>
				<g>
					<g>
						<g>
							<g>
								<g>
									<path class="st31" d="M921.2,64.1L921.2,64.1c-0.2,0-0.3-0.2-0.2-0.3c0-0.2,0.1-0.8-0.2-1.1c-0.2-0.2-0.6-0.3-1-0.2
										c-0.2,0-0.3-0.1-0.3-0.2c0-0.2,0.1-0.3,0.2-0.3c0.7-0.1,1.2,0,1.5,0.4c0.6,0.6,0.3,1.6,0.3,1.6
										C921.5,64.1,921.3,64.2,921.2,64.1z"/>
								</g>
							</g>
						</g>
					</g>
				</g>
				<g>
					<g>
						<g>
							<g>
								<g>
									<path class="st31" d="M918.8,71.6C918.7,71.6,918.7,71.6,918.8,71.6c-0.2-0.2-0.2-0.4-0.1-0.5c1.3-1.4,2.3-4.9,2.3-5
										c0-0.2,0.2-0.3,0.3-0.2c0.2,0,0.2,0.2,0.2,0.3c0,0.2-1,3.8-2.4,5.2C919,71.6,918.9,71.6,918.8,71.6z"/>
								</g>
							</g>
						</g>
					</g>
				</g>
			</g>

			<g class="st7">
				<g>
					<path class="st8" d="M861.7,12.7c-2.8,0-5-2.2-5-5s2.2-5,5-5s5,2.2,5,5S864.5,12.7,861.7,12.7z M861.7,4
						c-2.1,0-3.7,1.7-3.7,3.7s1.7,3.7,3.7,3.7s3.7-1.7,3.7-3.7S863.8,4,861.7,4z"/>
				</g>
			</g>
			<g class="st7">
				<g>
					<path class="st8" d="M983.8,150.2c-1.6,0-3-1.3-3-3c0-1.6,1.3-3,3-3c1.6,0,3,1.3,3,3C986.7,148.9,985.4,150.2,983.8,150.2z
						 M983.8,145.5c-0.9,0-1.7,0.8-1.7,1.7s0.8,1.7,1.7,1.7s1.7-0.8,1.7-1.7S984.7,145.5,983.8,145.5z"/>
				</g>
			</g>
			<g class="st7">
				<g>
					<path class="st8" d="M413.4,88.6c-2.3,0-4.1-1.9-4.1-4.1c0-2.3,1.9-4.1,4.1-4.1c2.3,0,4.1,1.9,4.1,4.1
						C417.5,86.8,415.7,88.6,413.4,88.6z M413.4,81.6c-1.6,0-2.9,1.3-2.9,2.9s1.3,2.9,2.9,2.9s2.9-1.3,2.9-2.9S415,81.6,413.4,81.6z
						"/>
				</g>
			</g>
		</g>
	</g>
</g>
</svg>
