<?xml version="1.0" encoding="UTF-8"?>
<svg xmlns="http://www.w3.org/2000/svg" xmlns:xlink="http://www.w3.org/1999/xlink" width="180px" height="149px" viewBox="0 0 180 149" version="1.1">
<g id="surface1">
<path style="fill-rule:evenodd;fill:rgb(6.666667%,6.666667%,10.196078%);fill-opacity:1;stroke-width:2;stroke-linecap:butt;stroke-linejoin:miter;stroke:rgb(0%,0%,0%);stroke-opacity:1;stroke-miterlimit:4;" d="M 86.198893 177.955878 C 86.198893 177.955878 90.95625 168.777422 93.663281 164.906748 C 96.295117 161.151243 99.99974 156.123873 103.473763 153.129483 C 109.82526 147.63643 118.527865 140.591102 125.059831 135.318372 C 128.11276 132.854761 131.466471 127.952574 135.316471 127.221503 C 136.975781 126.901033 139.141406 128.217964 140.715495 128.838874 C 143.071615 129.775246 145.778646 133.080091 148.270117 132.619416 C 153.453581 131.658007 155.724479 122.769977 160.95306 122.093986 C 163.625 121.748479 165.60013 122.830065 167.700586 124.522546 C 168.768359 125.383809 169.650651 127.276583 170.938997 127.757288 C 173.219922 128.613543 176.698958 126.535497 179.035026 127.221503 C 182.704557 128.293074 186.619727 132.043572 189.291667 134.77758 C 190.670247 136.18965 191.341992 139.209076 193.066471 140.175493 C 195.477734 141.51746 200.230078 138.868577 202.245312 140.711278 C 209.845052 147.676489 215.173893 153.750393 218.43737 163.920302 C 219.780859 168.116453 222.753581 177.955878 222.753581 177.955878 Z M 86.198893 177.955878 " transform="matrix(0.779221,0,0,0.780105,0,0)"/>
<path style=" stroke:none;fill-rule:evenodd;fill:rgb(99.607843%,100%,100%);fill-opacity:0.596078;" d="M 103.589844 144.394531 L 84.867188 117.058594 L 96.023438 107.871094 L 116.972656 140.375 Z M 103.589844 144.394531 "/>
<path style="fill-rule:evenodd;fill:rgb(0%,0%,0%);fill-opacity:1;stroke-width:4;stroke-linecap:butt;stroke-linejoin:miter;stroke:rgb(0%,0%,0%);stroke-opacity:1;stroke-miterlimit:4;" d="M 2.000195 175.256921 L 228.688997 175.256921 L 228.688997 189.292497 L 2.000195 189.292497 Z M 2.000195 175.256921 " transform="matrix(0.779221,0,0,0.780105,0,0)"/>
<path style="fill-rule:evenodd;fill:rgb(0%,0%,0%);fill-opacity:1;stroke-width:4;stroke-linecap:butt;stroke-linejoin:miter;stroke:rgb(0%,0%,0%);stroke-opacity:1;stroke-miterlimit:4;" d="M 23.04987 19.809039 L 85.121094 19.809039 L 85.121094 35.461986 L 23.04987 35.461986 Z M 23.04987 19.809039 " transform="matrix(0.779221,0,0,0.780105,0,0)"/>
<path style="fill-rule:evenodd;fill:rgb(0%,0%,0%);fill-opacity:1;stroke-width:4;stroke-linecap:butt;stroke-linejoin:miter;stroke:rgb(0%,0%,0%);stroke-opacity:1;stroke-miterlimit:4;" d="M 18.733659 68.390258 L 91.05651 68.390258 L 91.05651 73.247378 L 18.733659 73.247378 Z M 18.733659 68.390258 " transform="matrix(0.779221,0,0,0.780105,0,0)"/>
<path style="fill:none;stroke-width:4;stroke-linecap:butt;stroke-linejoin:miter;stroke:rgb(0%,0%,0%);stroke-opacity:1;stroke-miterlimit:4;" d="M 29.526693 101.854315 L 78.644271 101.854315 " transform="matrix(0.779221,0,0,0.780105,0,0)"/>
<path style="fill:none;stroke-width:4;stroke-linecap:butt;stroke-linejoin:miter;stroke:rgb(0%,0%,0%);stroke-opacity:1;stroke-miterlimit:4;" d="M 29.526693 137.476536 L 78.644271 137.476536 " transform="matrix(0.779221,0,0,0.780105,0,0)"/>
<path style="fill:none;stroke-width:4;stroke-linecap:butt;stroke-linejoin:miter;stroke:rgb(0%,0%,0%);stroke-opacity:1;stroke-miterlimit:4;" d="M 30.128255 175.096686 L 77.085221 138.397887 " transform="matrix(0.779221,0,0,0.780105,0,0)"/>
<path style="fill:none;stroke-width:4;stroke-linecap:butt;stroke-linejoin:miter;stroke:rgb(0%,0%,0%);stroke-opacity:1;stroke-miterlimit:4;" d="M 32.223698 138.012322 L 79.180664 101.313522 " transform="matrix(0.779221,0,0,0.780105,0,0)"/>
<path style="fill:none;stroke-width:4;stroke-linecap:butt;stroke-linejoin:miter;stroke:rgb(0%,0%,0%);stroke-opacity:1;stroke-miterlimit:4;" d="M 30.704753 100.707634 L 81.441536 71.019112 " transform="matrix(0.779221,0,0,0.780105,0,0)"/>
<path style="fill:none;stroke-width:4;stroke-linecap:butt;stroke-linejoin:miter;stroke:rgb(0%,0%,0%);stroke-opacity:1;stroke-miterlimit:4;" d="M 31.145898 180.114042 L 31.145898 27.905909 " transform="matrix(0.779221,0,0,0.780105,0,0)"/>
<path style="fill:none;stroke-width:4;stroke-linecap:butt;stroke-linejoin:miter;stroke:rgb(0%,0%,0%);stroke-opacity:1;stroke-miterlimit:4;" d="M 77.025065 180.114042 L 77.025065 27.905909 " transform="matrix(0.779221,0,0,0.780105,0,0)"/>
<path style="fill:none;stroke-width:4;stroke-linecap:butt;stroke-linejoin:miter;stroke:rgb(0%,0%,0%);stroke-opacity:1;stroke-miterlimit:4;" d="M 35.462109 26.288538 L 35.462109 1.997929 " transform="matrix(0.779221,0,0,0.780105,0,0)"/>
<path style="fill-rule:evenodd;fill:rgb(0%,0%,0%);fill-opacity:1;stroke-width:2;stroke-linecap:butt;stroke-linejoin:miter;stroke:rgb(0%,0%,0%);stroke-opacity:1;stroke-miterlimit:4;" d="M 36.447883 44.874311 C 36.447883 46.351476 35.337499 47.548231 33.966438 47.548231 C 32.597883 47.548231 31.484992 46.351476 31.487499 44.874311 C 31.484992 43.399649 32.597883 42.202894 33.966438 42.202894 C 35.337499 42.202894 36.447883 43.399649 36.447883 44.874311 Z M 36.447883 44.874311 " transform="matrix(1.558442,0,0,1.560209,-11.797989,-15.235979)"/>
<path style="fill:none;stroke-width:2;stroke-linecap:butt;stroke-linejoin:miter;stroke:rgb(0%,0%,0%);stroke-opacity:1;stroke-miterlimit:4;" d="M 46.561141 46.686658 C 46.561141 52.853197 41.56316 57.850523 35.39965 57.850523 C 29.233635 57.850523 24.235653 52.853197 24.235653 46.686658 C 24.235653 40.522621 29.233635 35.525295 35.39965 35.525295 C 41.56316 35.525295 46.561141 40.522621 46.561141 46.686658 Z M 46.561141 46.686658 " transform="matrix(1.558442,0,0,1.560209,-13.582349,-16.426901)"/>
<path style="fill:none;stroke-width:4;stroke-linecap:butt;stroke-linejoin:miter;stroke:rgb(0%,0%,0%);stroke-opacity:1;stroke-miterlimit:4;" d="M 86.569857 112.775325 L 86.569857 79.952207 " transform="matrix(0.779221,0,0,0.780105,0,0)"/>
<path style="fill:none;stroke-width:4;stroke-linecap:butt;stroke-linejoin:miter;stroke:rgb(0%,0%,0%);stroke-opacity:1;stroke-miterlimit:4;" d="M 102.791992 138.91865 L 102.791992 106.095533 " transform="matrix(0.779221,0,0,0.780105,0,0)"/>
<path style="fill:none;stroke-width:4;stroke-linecap:butt;stroke-linejoin:miter;stroke:rgb(0%,0%,0%);stroke-opacity:1;stroke-miterlimit:4;" d="M 87.141341 115.634517 L 102.791992 104.187736 " transform="matrix(0.779221,0,0,0.780105,0,0)"/>
<path style="fill:none;stroke-width:4;stroke-linecap:butt;stroke-linejoin:miter;stroke:rgb(0%,0%,0%);stroke-opacity:1;stroke-miterlimit:4;" d="M 103.553971 141.587563 L 119.199609 130.140782 " transform="matrix(0.779221,0,0,0.780105,0,0)"/>
<path style="fill:none;stroke-width:4;stroke-linecap:butt;stroke-linejoin:miter;stroke:rgb(0%,0%,0%);stroke-opacity:1;stroke-miterlimit:4;" d="M 124.924479 176.318477 L 66.151823 81.669725 " transform="matrix(0.779221,0,0,0.780105,0,0)"/>
<path style="fill:none;stroke-width:4.340451;stroke-linecap:butt;stroke-linejoin:miter;stroke:rgb(0%,0%,0%);stroke-opacity:1;stroke-miterlimit:4;" d="M 146.129557 175.387112 L 82.353906 72.676542 " transform="matrix(0.779221,0,0,0.780105,0,0)"/>
<path style="fill:none;stroke-width:4;stroke-linecap:butt;stroke-linejoin:miter;stroke:rgb(0%,0%,0%);stroke-opacity:1;stroke-miterlimit:4;" d="M 118.43763 163.725016 L 118.43763 130.901898 " transform="matrix(0.779221,0,0,0.780105,0,0)"/>
<path style="fill:none;stroke-width:4;stroke-linecap:butt;stroke-linejoin:miter;stroke:rgb(0%,0%,0%);stroke-opacity:1;stroke-miterlimit:4;" d="M 132.55931 186.623584 L 132.55931 153.800467 " transform="matrix(0.779221,0,0,0.780105,0,0)"/>
<path style="fill:none;stroke-width:4;stroke-linecap:butt;stroke-linejoin:miter;stroke:rgb(0%,0%,0%);stroke-opacity:1;stroke-miterlimit:4;" d="M 118.056641 165.632812 L 133.702279 154.181025 " transform="matrix(0.779221,0,0,0.780105,0,0)"/>
</g>
</svg>
