<?xml version="1.0" encoding="UTF-8"?>
<svg xmlns="http://www.w3.org/2000/svg" xmlns:xlink="http://www.w3.org/1999/xlink" width="137px" height="137px" viewBox="0 0 137 137" version="1.1">
<g id="surface1">
<path style=" stroke:none;fill-rule:nonzero;fill:rgb(0%,0%,0%);fill-opacity:1;" d="M 28.992188 122.859375 C 24.304688 121.25 23.785156 120.792969 22.78125 117.40625 C 21.84375 114.226562 21.84375 113.785156 22.785156 113.589844 C 23.328125 113.476562 28.902344 107.835938 39.800781 96.378906 C 48.71875 87.003906 57.15625 78.167969 58.550781 76.742188 C 60.449219 74.796875 61.015625 74.027344 60.808594 73.664062 C 60.226562 72.636719 35.90625 47.085938 35.285156 46.847656 C 35.042969 46.753906 34.410156 47.144531 33.875 47.714844 C 32.640625 49.023438 26.601562 57.078125 22.949219 62.289062 C 21.410156 64.476562 19.980469 66.253906 19.765625 66.234375 C 19.554688 66.214844 16.34375 63.777344 12.632812 60.816406 L 5.882812 55.4375 L 6.789062 54.640625 C 7.285156 54.203125 9.113281 51.765625 10.84375 49.222656 C 15.890625 41.828125 21.4375 34.613281 24.199219 31.84375 C 27.941406 28.101562 48.929688 12.585938 50.253906 12.585938 C 50.59375 12.585938 52.488281 14.777344 55.191406 18.296875 C 58.191406 22.203125 59.867188 24.117188 60.484375 24.34375 C 60.980469 24.527344 61.339844 24.816406 61.28125 24.980469 C 61.222656 25.148438 57.945312 27.710938 54.003906 30.679688 C 50.0625 33.648438 45.804688 37.035156 44.542969 38.207031 C 41.230469 41.273438 41.078125 40.90625 48.96875 48.835938 C 56.890625 56.792969 76.640625 75.933594 96.21875 94.636719 C 104.277344 102.335938 111.890625 109.605469 113.128906 110.789062 C 114.578125 112.175781 115.644531 112.945312 116.117188 112.945312 C 116.816406 112.945312 116.839844 113.019531 116.628906 114.609375 C 116.277344 117.269531 115.175781 119.664062 113.921875 120.507812 C 112.738281 121.304688 110.464844 122.03125 108.152344 122.355469 L 106.707031 122.554688 L 87.789062 102.289062 C 77.382812 91.144531 68.773438 82.0625 68.652344 82.113281 C 68.53125 82.160156 60.65625 91.015625 51.144531 101.792969 C 41.636719 112.570312 33.335938 121.914062 32.699219 122.558594 L 31.542969 123.730469 Z M 72.023438 70.160156 L 68.222656 66.558594 L 79.699219 54.519531 C 89.382812 44.359375 91.175781 42.335938 91.175781 41.554688 C 91.175781 40.757812 90.089844 39.621094 83.265625 33.265625 C 78.914062 29.214844 75.433594 25.769531 75.53125 25.613281 C 75.625 25.457031 76 25.328125 76.355469 25.328125 C 76.757812 25.328125 79.144531 23.289062 82.6875 19.914062 C 85.8125 16.933594 88.523438 14.496094 88.710938 14.496094 C 88.898438 14.496094 92.289062 17.652344 96.246094 21.503906 C 103.753906 28.816406 104.277344 29.179688 105.457031 27.878906 C 105.773438 27.527344 106.261719 27.242188 106.542969 27.246094 C 106.824219 27.246094 108.054688 28.101562 109.277344 29.140625 C 110.699219 30.351562 111.84375 31.070312 112.449219 31.128906 L 113.390625 31.222656 L 112.328125 32.429688 C 111.742188 33.09375 111.21875 34.054688 111.15625 34.570312 C 111.0625 35.394531 111.355469 35.769531 113.636719 37.746094 C 115.0625 38.976562 116.382812 39.984375 116.578125 39.988281 C 116.894531 39.992188 131.109375 67.402344 130.921875 67.648438 C 130.878906 67.707031 125.417969 64.863281 118.785156 61.324219 L 106.734375 54.894531 L 103.0625 51.261719 C 101.046875 49.265625 99.304688 47.632812 99.195312 47.632812 C 99.082031 47.632812 93.800781 53.507812 87.457031 60.695312 C 81.113281 67.878906 75.898438 73.757812 75.875 73.757812 C 75.847656 73.757812 74.117188 72.136719 72.023438 70.160156 Z M 72.023438 70.160156 "/>
</g>
</svg>
